<svg width="8" height="12" viewBox="0 0 8 12" fill="none" xmlns="http://www.w3.org/2000/svg">
<path d="M1.50029 11.8332C1.33477 11.8341 1.17271 11.7858 1.03478 11.6943C0.896845 11.6028 0.789286 11.4723 0.725813 11.3194C0.662341 11.1665 0.645832 10.9982 0.67839 10.8359C0.710948 10.6736 0.791098 10.5247 0.908623 10.4082L5.32529 5.99983L0.908623 1.5915C0.751703 1.43458 0.663546 1.22175 0.663546 0.999829C0.663546 0.889946 0.685189 0.78114 0.727239 0.679621C0.769289 0.578103 0.830924 0.485861 0.908623 0.408162C0.986321 0.330464 1.07856 0.26883 1.18008 0.226779C1.2816 0.184729 1.39041 0.163086 1.50029 0.163086C1.72221 0.163086 1.93504 0.251243 2.09196 0.408162L7.09196 5.40816C7.24717 5.5643 7.33428 5.77551 7.33428 5.99566C7.33428 6.21582 7.24717 6.42703 7.09196 6.58316L2.09196 11.5832C2.01478 11.6619 1.92274 11.7245 1.82118 11.7675C1.71961 11.8104 1.61055 11.8327 1.50029 11.8332Z" fill="#09679C"/>
</svg>
