<svg width="20" height="20" viewBox="0 0 20 20" fill="none" xmlns="http://www.w3.org/2000/svg">
<path fill-rule="evenodd" clip-rule="evenodd" d="M9.58268 16.8862H2.45768C2.41348 16.8862 2.37109 16.8686 2.33983 16.8373C2.30858 16.8061 2.29102 16.7637 2.29102 16.7195V15.5103C2.29102 14.8187 2.78518 14.2087 3.54685 13.6903C4.90685 12.762 7.10768 12.177 9.58268 12.177C9.74844 12.177 9.90741 12.1111 10.0246 11.9939C10.1418 11.8767 10.2077 11.7178 10.2077 11.552C10.2077 11.3862 10.1418 11.2273 10.0246 11.1101C9.90741 10.9928 9.74844 10.927 9.58268 10.927C6.81435 10.927 4.36352 11.6195 2.84185 12.657C1.68102 13.4487 1.04102 14.4545 1.04102 15.5103V16.7195C1.04102 17.0952 1.19027 17.4556 1.45595 17.7212C1.72162 17.9869 2.08196 18.1362 2.45768 18.1362H9.58268C9.74844 18.1362 9.90741 18.0703 10.0246 17.9531C10.1418 17.8359 10.2077 17.6769 10.2077 17.5112C10.2077 17.3454 10.1418 17.1864 10.0246 17.0692C9.90741 16.952 9.74844 16.8862 9.58268 16.8862ZM9.58268 1.04199C7.05268 1.04199 4.99935 3.09533 4.99935 5.62533C4.99935 8.15533 7.05268 10.2087 9.58268 10.2087C12.1127 10.2087 14.166 8.15533 14.166 5.62533C14.166 3.09533 12.1127 1.04199 9.58268 1.04199ZM9.58268 2.29199C11.4227 2.29199 12.916 3.78533 12.916 5.62533C12.916 7.46533 11.4227 8.95866 9.58268 8.95866C7.74268 8.95866 6.24935 7.46533 6.24935 5.62533C6.24935 3.78533 7.74268 2.29199 9.58268 2.29199ZM14.5827 11.6153C13.8102 11.6377 13.0769 11.9604 12.5385 12.5147C12 13.069 11.6988 13.8113 11.6988 14.5841C11.6988 15.3568 12 16.0992 12.5385 16.6535C13.0769 17.2078 13.8102 17.5304 14.5827 17.5528C16.221 17.5528 17.5518 16.222 17.5518 14.5837C17.5518 12.9453 16.221 11.6153 14.5827 11.6153ZM14.5827 12.8653C15.531 12.8653 16.3018 13.6353 16.3018 14.5837C16.3018 15.532 15.531 16.3028 14.5827 16.3028C13.6343 16.3028 12.8635 15.532 12.8635 14.5837C12.8635 13.6353 13.6343 12.8653 14.5827 12.8653Z" fill="white"/>
<path fill-rule="evenodd" clip-rule="evenodd" d="M15.207 12.2398V10.834C15.207 10.6682 15.1412 10.5093 15.024 10.392C14.9068 10.2748 14.7478 10.209 14.582 10.209C14.4163 10.209 14.2573 10.2748 14.1401 10.392C14.0229 10.5093 13.957 10.6682 13.957 10.834V12.2407C13.9571 12.4064 14.0231 12.5653 14.1404 12.6825C14.2577 12.7996 14.4167 12.8653 14.5824 12.8652C14.7482 12.8651 14.9071 12.7992 15.0243 12.6819C15.1414 12.5646 15.2071 12.4056 15.207 12.2398ZM16.6812 13.369L17.6754 12.374C17.7925 12.2568 17.8583 12.098 17.8583 11.9323C17.8583 11.7667 17.7925 11.6078 17.6754 11.4907C17.5582 11.3735 17.3994 11.3077 17.2337 11.3077C17.068 11.3077 16.9092 11.3735 16.792 11.4907L15.797 12.4848C15.6801 12.6023 15.6145 12.7612 15.6145 12.9269C15.6145 13.0926 15.6801 13.2515 15.797 13.369C15.9145 13.4859 16.0734 13.5515 16.2391 13.5515C16.4048 13.5515 16.5638 13.4859 16.6812 13.369ZM16.9254 15.209H18.332C18.4978 15.209 18.6568 15.1431 18.774 15.0259C18.8912 14.9087 18.957 14.7497 18.957 14.584C18.957 14.4182 18.8912 14.2593 18.774 14.142C18.6568 14.0248 18.4978 13.959 18.332 13.959H16.9254C16.7596 13.959 16.6006 14.0248 16.4834 14.142C16.3662 14.2593 16.3004 14.4182 16.3004 14.584C16.3004 14.7497 16.3662 14.9087 16.4834 15.0259C16.6006 15.1431 16.7596 15.209 16.9254 15.209ZM15.797 16.6832L16.792 17.6773C16.85 17.7353 16.9189 17.7813 16.9947 17.8127C17.0705 17.8441 17.1517 17.8603 17.2337 17.8603C17.3157 17.8603 17.3969 17.8441 17.4727 17.8127C17.5485 17.7813 17.6174 17.7353 17.6754 17.6773C17.7334 17.6193 17.7794 17.5505 17.8108 17.4747C17.8422 17.3989 17.8583 17.3177 17.8583 17.2357C17.8583 17.1536 17.8422 17.0724 17.8108 16.9966C17.7794 16.9208 17.7334 16.852 17.6754 16.794L16.6812 15.799C16.5638 15.6821 16.4048 15.6165 16.2391 15.6165C16.0734 15.6165 15.9145 15.6821 15.797 15.799C15.6801 15.9164 15.6145 16.0754 15.6145 16.2411C15.6145 16.4068 15.6801 16.5657 15.797 16.6832ZM13.957 16.9273V18.334C13.957 18.4997 14.0229 18.6587 14.1401 18.7759C14.2573 18.8931 14.4163 18.959 14.582 18.959C14.7478 18.959 14.9068 18.8931 15.024 18.7759C15.1412 18.6587 15.207 18.4997 15.207 18.334V16.9273C15.207 16.7616 15.1412 16.6026 15.024 16.4854C14.9068 16.3682 14.7478 16.3023 14.582 16.3023C14.4163 16.3023 14.2573 16.3682 14.1401 16.4854C14.0229 16.6026 13.957 16.7616 13.957 16.9273ZM12.4829 15.799L11.4887 16.794C11.4307 16.852 11.3847 16.9208 11.3533 16.9966C11.3219 17.0724 11.3058 17.1536 11.3058 17.2357C11.3058 17.3177 11.3219 17.3989 11.3533 17.4747C11.3847 17.5505 11.4307 17.6193 11.4887 17.6773C11.5467 17.7353 11.6156 17.7813 11.6913 17.8127C11.7671 17.8441 11.8483 17.8603 11.9304 17.8603C12.0124 17.8603 12.0936 17.8441 12.1694 17.8127C12.2452 17.7813 12.314 17.7353 12.372 17.6773L13.367 16.6832C13.4839 16.5657 13.5495 16.4068 13.5495 16.2411C13.5495 16.0754 13.4839 15.9164 13.367 15.799C13.2496 15.6821 13.0906 15.6165 12.9249 15.6165C12.7593 15.6165 12.6003 15.6821 12.4829 15.799ZM12.2379 13.959H10.832C10.6663 13.959 10.5073 14.0248 10.3901 14.142C10.2729 14.2593 10.207 14.4182 10.207 14.584C10.207 14.7497 10.2729 14.9087 10.3901 15.0259C10.5073 15.1431 10.6663 15.209 10.832 15.209H12.2379C12.4036 15.209 12.5626 15.1431 12.6798 15.0259C12.797 14.9087 12.8629 14.7497 12.8629 14.584C12.8629 14.4182 12.797 14.2593 12.6798 14.142C12.5626 14.0248 12.4036 13.959 12.2379 13.959ZM13.367 12.4848L12.372 11.4907C12.314 11.4327 12.2452 11.3866 12.1694 11.3553C12.0936 11.3239 12.0124 11.3077 11.9304 11.3077C11.8483 11.3077 11.7671 11.3239 11.6913 11.3553C11.6156 11.3866 11.5467 11.4327 11.4887 11.4907C11.4307 11.5487 11.3847 11.6175 11.3533 11.6933C11.3219 11.7691 11.3058 11.8503 11.3058 11.9323C11.3058 12.0143 11.3219 12.0956 11.3533 12.1713C11.3847 12.2471 11.4307 12.316 11.4887 12.374L12.4829 13.369C12.6003 13.4859 12.7593 13.5515 12.9249 13.5515C13.0906 13.5515 13.2496 13.4859 13.367 13.369C13.4839 13.2515 13.5495 13.0926 13.5495 12.9269C13.5495 12.7612 13.4839 12.6023 13.367 12.4848Z" fill="white"/>
</svg>
