<svg width="20" height="20" viewBox="0 0 20 20" fill="none" xmlns="http://www.w3.org/2000/svg">
<path d="M16.875 18.75H3.125C2.62772 18.75 2.15081 18.5525 1.79917 18.2008C1.44754 17.8492 1.25 17.3723 1.25 16.875V8.75C1.25 8.25272 1.44754 7.77581 1.79917 7.42417C2.15081 7.07254 2.62772 6.875 3.125 6.875H16.875C17.3723 6.875 17.8492 7.07254 18.2008 7.42417C18.5525 7.77581 18.75 8.25272 18.75 8.75V16.875C18.75 17.3723 18.5525 17.8492 18.2008 18.2008C17.8492 18.5525 17.3723 18.75 16.875 18.75ZM3.125 8.125C2.95924 8.125 2.80027 8.19085 2.68306 8.30806C2.56585 8.42527 2.5 8.58424 2.5 8.75V16.875C2.5 17.0408 2.56585 17.1997 2.68306 17.3169C2.80027 17.4342 2.95924 17.5 3.125 17.5H16.875C17.0408 17.5 17.1997 17.4342 17.3169 17.3169C17.4342 17.1997 17.5 17.0408 17.5 16.875V8.75C17.5 8.58424 17.4342 8.42527 17.3169 8.30806C17.1997 8.19085 17.0408 8.125 16.875 8.125H3.125Z" fill="#2F3438"/>
<path d="M2.49369 8.19343C2.35083 8.19377 2.21216 8.14517 2.10079 8.0557C1.98941 7.96624 1.91204 7.84132 1.88157 7.70175C1.8511 7.56217 1.86936 7.41638 1.93332 7.28863C1.99727 7.16089 2.10306 7.05891 2.23306 6.99968L14.1018 1.56593C14.2511 1.49749 14.4123 1.45912 14.5764 1.45301C14.7405 1.44691 14.9042 1.47319 15.0581 1.53036C15.212 1.58753 15.3532 1.67447 15.4735 1.7862C15.5938 1.89793 15.6909 2.03228 15.7593 2.18156L18.0718 7.23906C18.1358 7.38895 18.1387 7.5579 18.0799 7.7099C18.0211 7.86189 17.9053 7.98492 17.7571 8.05274C17.6089 8.12056 17.4401 8.12781 17.2866 8.07295C17.1331 8.01809 17.0072 7.90545 16.9356 7.75906L14.6243 2.70281L2.75306 8.13656C2.67173 8.17404 2.58324 8.19345 2.49369 8.19343ZM9.99931 15.9372C9.38125 15.9372 8.77706 15.7539 8.26315 15.4105C7.74925 15.0671 7.34871 14.5791 7.11219 14.0081C6.87566 13.437 6.81378 12.8087 6.93436 12.2025C7.05494 11.5963 7.35256 11.0395 7.7896 10.6025C8.22664 10.1654 8.78346 9.86781 9.38966 9.74723C9.99585 9.62665 10.6242 9.68853 11.1952 9.92506C11.7662 10.1616 12.2543 10.5621 12.5977 11.076C12.941 11.5899 13.1243 12.1941 13.1243 12.8122C13.1233 13.6407 12.7938 14.435 12.2079 15.0208C11.6221 15.6066 10.8278 15.9362 9.99931 15.9372ZM9.99931 10.9372C9.62847 10.9372 9.26596 11.0471 8.95762 11.2532C8.64928 11.4592 8.40895 11.752 8.26704 12.0946C8.12512 12.4373 8.08799 12.8143 8.16034 13.178C8.23269 13.5417 8.41126 13.8758 8.67349 14.138C8.93571 14.4002 9.2698 14.5788 9.63352 14.6512C9.99723 14.7235 10.3742 14.6864 10.7168 14.5445C11.0595 14.4025 11.3523 14.1622 11.5583 13.8539C11.7643 13.5455 11.8743 13.183 11.8743 12.8122C11.8743 12.3149 11.6768 11.838 11.3251 11.4864C10.9735 11.1347 10.4966 10.9372 9.99931 10.9372Z" fill="#2F3438"/>
<path d="M1.875 11.8751C1.70924 11.8751 1.55027 11.8093 1.43306 11.6921C1.31585 11.5749 1.25 11.4159 1.25 11.2501C1.25 11.0844 1.31585 10.9254 1.43306 10.8082C1.55027 10.691 1.70924 10.6251 1.875 10.6251C2.53804 10.6251 3.17393 10.3618 3.64277 9.89291C4.11161 9.42407 4.375 8.78818 4.375 8.12514C4.37643 7.95974 4.3603 7.79464 4.32687 7.63264C4.29173 7.47061 4.3224 7.30126 4.41212 7.16184C4.50185 7.02242 4.64328 6.92435 4.80531 6.88921C4.96734 6.85406 5.1367 6.88473 5.27612 6.97445C5.41554 7.06418 5.51361 7.20561 5.54875 7.36764C5.60089 7.61674 5.62645 7.87066 5.625 8.12514C5.62401 9.1194 5.2286 10.0727 4.52555 10.7757C3.82251 11.4787 2.86926 11.8742 1.875 11.8751ZM4.98188 18.7501C4.95512 18.7503 4.92839 18.7487 4.90188 18.7451C4.82045 18.7347 4.74188 18.7084 4.67064 18.6676C4.59941 18.6268 4.5369 18.5724 4.4867 18.5074C4.43649 18.4425 4.39958 18.3683 4.37805 18.2891C4.35653 18.2099 4.35082 18.1272 4.36125 18.0458C4.37063 17.9684 4.37522 17.8906 4.375 17.8126C4.375 17.1496 4.11161 16.5137 3.64277 16.0449C3.17393 15.576 2.53804 15.3126 1.875 15.3126C1.70924 15.3126 1.55027 15.2468 1.43306 15.1296C1.31585 15.0124 1.25 14.8534 1.25 14.6876C1.25 14.5219 1.31585 14.3629 1.43306 14.2457C1.55027 14.1285 1.70924 14.0626 1.875 14.0626C2.86926 14.0636 3.82251 14.459 4.52555 15.1621C5.2286 15.8651 5.62401 16.8184 5.625 17.8126C5.6251 17.9436 5.61717 18.0745 5.60125 18.2045C5.58196 18.3552 5.50844 18.4937 5.39445 18.5941C5.28046 18.6945 5.13379 18.75 4.98188 18.7501ZM18.125 11.8751C17.1307 11.8742 16.1775 11.4787 15.4744 10.7757C14.7714 10.0727 14.376 9.1194 14.375 8.12514C14.3736 7.87066 14.3991 7.61674 14.4513 7.36764C14.4864 7.20561 14.5845 7.06418 14.7239 6.97445C14.8633 6.88473 15.0327 6.85406 15.1947 6.88921C15.3567 6.92435 15.4982 7.02242 15.5879 7.16184C15.6776 7.30126 15.7083 7.47061 15.6731 7.63264C15.6397 7.79464 15.6236 7.95974 15.625 8.12514C15.625 8.78818 15.8884 9.42407 16.3572 9.89291C16.8261 10.3618 17.462 10.6251 18.125 10.6251C18.2908 10.6251 18.4497 10.691 18.5669 10.8082C18.6842 10.9254 18.75 11.0844 18.75 11.2501C18.75 11.4159 18.6842 11.5749 18.5669 11.6921C18.4497 11.8093 18.2908 11.8751 18.125 11.8751ZM15.0181 18.7501C14.8662 18.75 14.7195 18.6945 14.6056 18.5941C14.4916 18.4937 14.418 18.3552 14.3988 18.2045C14.3828 18.0745 14.3749 17.9436 14.375 17.8126C14.376 16.8184 14.7714 15.8651 15.4744 15.1621C16.1775 14.459 17.1307 14.0636 18.125 14.0626C18.2908 14.0626 18.4497 14.1285 18.5669 14.2457C18.6842 14.3629 18.75 14.5219 18.75 14.6876C18.75 14.8534 18.6842 15.0124 18.5669 15.1296C18.4497 15.2468 18.2908 15.3126 18.125 15.3126C17.462 15.3126 16.8261 15.576 16.3572 16.0449C15.8884 16.5137 15.625 17.1496 15.625 17.8126C15.6248 17.8906 15.6294 17.9684 15.6388 18.0458C15.6492 18.1272 15.6435 18.2099 15.6219 18.2891C15.6004 18.3683 15.5635 18.4425 15.5133 18.5074C15.4631 18.5724 15.4006 18.6268 15.3294 18.6676C15.2581 18.7084 15.1795 18.7347 15.0981 18.7451C15.0716 18.7487 15.0449 18.7503 15.0181 18.7501Z" fill="#2F3438"/>
</svg>
