<svg width="18" height="18" viewBox="0 0 18 18" fill="none" xmlns="http://www.w3.org/2000/svg">
<g clip-path="url(#clip0_1_74283)">
<path d="M4.82456 0H0.650646C0.362488 0 0.128906 0.233582 0.128906 0.52174V4.69566C0.128906 4.98382 0.362488 5.2174 0.650646 5.2174H4.82456C5.11272 5.2174 5.3463 4.98382 5.3463 4.69566V0.52174C5.3463 0.233582 5.11272 0 4.82456 0ZM11.0854 0H6.91152C6.62337 0 6.38978 0.233582 6.38978 0.52174V4.69566C6.38978 4.98382 6.62337 5.2174 6.91152 5.2174H11.0854C11.3736 5.2174 11.6072 4.98382 11.6072 4.69566V0.52174C11.6072 0.233582 11.3736 0 11.0854 0ZM4.82456 6.26088H0.650646C0.362488 6.26088 0.128906 6.49446 0.128906 6.78262V10.9565C0.128906 11.2447 0.362488 11.4783 0.650646 11.4783H4.82456C5.11272 11.4783 5.3463 11.2447 5.3463 10.9565V6.78262C5.3463 6.49446 5.11272 6.26088 4.82456 6.26088ZM11.0854 6.26088H6.91152C6.62337 6.26088 6.38978 6.49446 6.38978 6.78262V10.9565C6.38978 11.2447 6.62337 11.4783 6.91152 11.4783H11.0854C11.3736 11.4783 11.6072 11.2447 11.6072 10.9565V6.78262C11.6072 6.49446 11.3736 6.26088 11.0854 6.26088ZM17.3463 0H13.1724C12.8842 0 12.6507 0.233582 12.6507 0.52174V4.69566C12.6507 4.98382 12.8842 5.2174 13.1724 5.2174H17.3463C17.6345 5.2174 17.8681 4.98382 17.8681 4.69566V0.52174C17.8681 0.233582 17.6344 0 17.3463 0ZM17.3463 6.26088H13.1724C12.8842 6.26088 12.6507 6.49446 12.6507 6.78262V10.9565C12.6507 11.2447 12.8842 11.4783 13.1724 11.4783H17.3463C17.6345 11.4783 17.8681 11.2447 17.8681 10.9565V6.78262C17.8681 6.49446 17.6344 6.26088 17.3463 6.26088ZM4.82456 12.7826H0.650646C0.362488 12.7826 0.128906 13.0162 0.128906 13.3043V17.4783C0.128906 17.7664 0.362488 18 0.650646 18H4.82456C5.11272 18 5.3463 17.7664 5.3463 17.4783V13.3043C5.3463 13.0162 5.11272 12.7826 4.82456 12.7826ZM11.0854 12.7826H6.91152C6.62337 12.7826 6.38978 13.0162 6.38978 13.3043V17.4783C6.38978 17.7664 6.62337 18 6.91152 18H11.0854C11.3736 18 11.6072 17.7664 11.6072 17.4783V13.3043C11.6072 13.0162 11.3736 12.7826 11.0854 12.7826ZM17.3463 12.7826H13.1724C12.8842 12.7826 12.6507 13.0162 12.6507 13.3043V17.4783C12.6507 17.7664 12.8842 18 13.1724 18H17.3463C17.6345 18 17.8681 17.7664 17.8681 17.4783V13.3043C17.8681 13.0162 17.6344 12.7826 17.3463 12.7826Z" fill="white"/>
</g>
<defs>
<clipPath id="clip0_1_74283">
<rect width="18" height="18" fill="white"/>
</clipPath>
</defs>
</svg>
