<svg width="18" height="18" viewBox="0 0 18 18" fill="none" xmlns="http://www.w3.org/2000/svg">
<path d="M11.6455 3.21191H15.8818V1.58594C15.8818 1.2947 15.6457 1.05859 15.3545 1.05859H12.1729C11.8816 1.05859 11.6455 1.2947 11.6455 1.58594V3.21191ZM6.35449 14.8223H0V16.4131C0 16.7043 0.236109 16.9404 0.527344 16.9404H5.82715C6.11838 16.9404 6.35449 16.7043 6.35449 16.4131V14.8223ZM11.6455 14.8223V16.4131C11.6455 16.7043 11.8816 16.9404 12.1729 16.9404H17.4727C17.7639 16.9404 18 16.7043 18 16.4131V14.8223H11.6455ZM6.35449 13.7676V4.2666H1.96942L0.531598 9.99394C0.22166 11.2293 0.0461138 12.4945 0.00801563 13.7676H6.35449ZM11.6455 4.2666V13.7676H17.992C17.9539 12.4945 17.7783 11.2293 17.4684 9.99394L16.0306 4.2666H11.6455ZM10.5908 6.34961V5.29492H7.40918V12.7041H10.5908V6.34961ZM8.47266 10.0586V7.94043C8.47266 7.6492 8.70877 7.41309 9 7.41309C9.29123 7.41309 9.52734 7.6492 9.52734 7.94043V10.0586C9.52734 10.3498 9.29123 10.5859 9 10.5859C8.70877 10.5859 8.47266 10.3498 8.47266 10.0586ZM6.35449 3.21191V1.58594C6.35449 1.2947 6.11838 1.05859 5.82715 1.05859H2.64551C2.35427 1.05859 2.11816 1.2947 2.11816 1.58594V3.21191H6.35449Z" fill="white"/>
</svg>
