<svg width="18" height="18" viewBox="0 0 18 18" fill="none" xmlns="http://www.w3.org/2000/svg">
<g clip-path="url(#clip0_1_74271)">
<path d="M16.804 1.62942e-06H0.756579C0.617715 -0.000287033 0.481469 0.0377835 0.362869 0.110014C0.244269 0.182245 0.147923 0.285829 0.084457 0.409342C0.020134 0.534566 -0.0083585 0.675121 0.00212121 0.815509C0.0126009 0.955897 0.0616458 1.09066 0.143848 1.20495L6.02299 9.48701C6.02496 9.48988 6.02711 9.49253 6.02907 9.49541C6.24271 9.78384 6.3583 10.1331 6.35887 10.4921V17.2444C6.35826 17.3433 6.37721 17.4415 6.41463 17.5331C6.45205 17.6247 6.50721 17.7081 6.57693 17.7783C6.64672 17.8485 6.72969 17.9042 6.82107 17.9423C6.91245 17.9803 7.01045 17.9999 7.10944 18C7.21106 17.9998 7.31165 17.9797 7.40548 17.9406L10.7091 16.681C11.005 16.5906 11.2015 16.3112 11.2015 15.975V10.4921C11.2021 10.1332 11.3176 9.7839 11.5311 9.49541C11.5331 9.49253 11.5352 9.48988 11.5372 9.48701L17.4165 1.20477C17.4987 1.09056 17.5477 0.955858 17.5582 0.815536C17.5687 0.675214 17.5402 0.534724 17.4759 0.40957C17.4125 0.286016 17.3162 0.18238 17.1977 0.110104C17.0791 0.0378283 16.9429 -0.000274919 16.804 1.62942e-06Z" fill="white"/>
</g>
<defs>
<clipPath id="clip0_1_74271">
<rect width="18" height="18" fill="white"/>
</clipPath>
</defs>
</svg>
