<svg width="18" height="17" viewBox="0 0 18 17" fill="none" xmlns="http://www.w3.org/2000/svg">
<path fill-rule="evenodd" clip-rule="evenodd" d="M15.8818 2.15332H11.6455V0.527344C11.6455 0.236109 11.8816 0 12.1729 0H15.3545C15.6457 0 15.8818 0.236109 15.8818 0.527344V2.15332ZM0 13.7637H6.35449V15.3545C6.35449 15.6457 6.11838 15.8818 5.82715 15.8818H0.527344C0.236109 15.8818 0 15.6457 0 15.3545V13.7637ZM6.35449 3.20801V12.709H0.00801563C0.0461138 11.4359 0.22166 10.1707 0.531598 8.93535L1.96942 3.20801H6.35449ZM11.6455 11.8203V3.20801H16.0306L17.4684 8.93535C17.6579 9.69068 17.7972 10.4572 17.8855 11.2298C17.1576 10.4718 16.1339 10 15 10C13.5949 10 12.359 10.7245 11.6455 11.8203ZM10.5908 4.23633V5.29102V11.6455H7.40918V4.23633H10.5908ZM8.47266 6.88184V9C8.47266 9.29123 8.70877 9.52734 9 9.52734C9.29123 9.52734 9.52734 9.29123 9.52734 9V6.88184C9.52734 6.5906 9.29123 6.35449 9 6.35449C8.70877 6.35449 8.47266 6.5906 8.47266 6.88184ZM6.35449 0.527344V2.15332H2.11816V0.527344C2.11816 0.236109 2.35427 0 2.64551 0H5.82715C6.11838 0 6.35449 0.236109 6.35449 0.527344Z" fill="#878484"/>
<path d="M15 17C16.6569 17 18 15.6569 18 14C18 12.3431 16.6569 11 15 11C13.3431 11 12 12.3431 12 14C12 15.6569 13.3431 17 15 17Z" fill="#878484"/>
<path d="M15.425 13.5731L15.4279 12.184C15.4279 12.07 15.3826 11.9607 15.302 11.8801C15.2214 11.7995 15.1121 11.7542 14.9981 11.7542C14.8841 11.7541 14.7748 11.7994 14.6942 11.88C14.6136 11.9606 14.5684 12.0699 14.5684 12.1839L14.5716 13.573L13.1824 13.5698C13.0685 13.5698 12.9592 13.6151 12.8786 13.6956C12.798 13.7762 12.7527 13.8855 12.7527 13.9995C12.7528 14.1135 12.798 14.2228 12.8786 14.3034C12.9592 14.384 13.0686 14.4293 13.1825 14.4293L14.5717 14.4264L14.5688 15.8155C14.5685 15.872 14.5795 15.928 14.601 15.9803C14.6226 16.0325 14.6542 16.08 14.6942 16.1199C14.7341 16.1599 14.7816 16.1915 14.8338 16.2131C14.8861 16.2346 14.9421 16.2456 14.9986 16.2453C15.0551 16.2456 15.1111 16.2346 15.1633 16.2131C15.2155 16.1916 15.263 16.16 15.3029 16.12C15.3429 16.0801 15.3745 16.0326 15.396 15.9804C15.4176 15.9281 15.4285 15.8721 15.4283 15.8156L15.4251 14.4265L16.8142 14.4297C16.8707 14.4299 16.9267 14.419 16.9789 14.3975C17.0312 14.376 17.0786 14.3443 17.1186 14.3044C17.1585 14.2644 17.1902 14.217 17.2117 14.1647C17.2332 14.1125 17.2441 14.0565 17.2439 14C17.2441 13.9435 17.2332 13.8875 17.2117 13.8352C17.1901 13.783 17.1585 13.7355 17.1185 13.6956C17.0786 13.6556 17.0311 13.624 16.9789 13.6024C16.9266 13.5809 16.8706 13.57 16.8141 13.5702L15.425 13.5731Z" fill="#F2F6FB"/>
</svg>
