<svg width="17" height="16" viewBox="0 0 17 16" fill="none" xmlns="http://www.w3.org/2000/svg">
<rect x="0.5" y="0.5" width="12.5148" height="12.5148" rx="0.5" stroke="#2A2A2A"/>
<line x1="0.75" y1="4.75586" x2="12.7632" y2="4.75586" stroke="#2A2A2A"/>
<line x1="0.75" y1="9.26074" x2="12.7632" y2="9.26074" stroke="#2A2A2A"/>
<path d="M8.03666 7.656L16.0036 10.5912C16.1298 10.6386 16.2099 10.7656 16.1956 10.9006C16.189 10.9663 16.1605 11.0279 16.1148 11.0755C16.069 11.1231 16.0086 11.1539 15.9432 11.1631L11.7606 11.7606L11.163 15.9432C11.1442 16.0778 11.0356 16.1823 10.901 16.1961C10.8096 16.2062 10.7215 16.1726 10.6599 16.111C10.6301 16.0812 10.6066 16.0451 10.5915 16.004L7.65634 8.03715C7.61609 7.92813 7.64293 7.80653 7.72469 7.72476C7.80646 7.643 7.92806 7.61616 8.03666 7.656Z" fill="#0056B0"/>
</svg>
