<svg width="20" height="20" viewBox="0 0 20 20" fill="none" xmlns="http://www.w3.org/2000/svg">
<g clip-path="url(#clip0_60_23746)">
<path d="M12.7493 10.4105C12.8985 10.4105 13.0416 10.3513 13.1471 10.2458C13.2526 10.1403 13.3118 9.99723 13.3118 9.84805V9.53867C14.5162 9.1993 14.6918 8.40367 14.7018 8.02055C14.7225 7.22555 14.1075 6.6793 12.8731 6.39805C12.0331 6.2068 11.92 6.00242 11.9262 5.89742C11.9581 5.43867 12.8131 5.34242 13.3493 5.36117C13.3493 5.51036 13.4086 5.65343 13.5141 5.75892C13.6196 5.86441 13.7627 5.92367 13.9118 5.92367C14.061 5.92367 14.2041 5.86441 14.3096 5.75892C14.4151 5.65343 14.4743 5.51036 14.4743 5.36117C14.4743 5.0468 14.3443 4.74117 14.1187 4.52305C13.9018 4.31464 13.612 4.19934 13.3112 4.2018V4.04492C13.3112 3.89574 13.2519 3.75266 13.1465 3.64717C13.041 3.54168 12.8979 3.48242 12.7487 3.48242C12.5995 3.48242 12.4565 3.54168 12.351 3.64717C12.2455 3.75266 12.1862 3.89574 12.1862 4.04492V4.35617C11.0781 4.66805 10.835 5.36867 10.8043 5.8218C10.7481 6.64492 11.36 7.20805 12.6225 7.49555C13.3325 7.65742 13.58 7.86367 13.5768 7.9918C13.5637 8.49617 12.4131 8.55555 12.1562 8.55805C12.145 8.5468 12.145 8.53617 12.145 8.5318C12.145 8.38261 12.0857 8.23954 11.9802 8.13405C11.8747 8.02856 11.7316 7.9693 11.5825 7.9693C11.4333 7.9693 11.2902 8.02856 11.1847 8.13405C11.0792 8.23954 11.02 8.38261 11.02 8.5318C11.02 8.84992 11.1462 9.14617 11.3743 9.3668C11.5912 9.57617 11.8843 9.69367 12.1862 9.6943V9.84742C12.1864 9.99672 12.2458 10.1399 12.3513 10.2454C12.4569 10.351 12.6 10.4104 12.7493 10.4105Z" fill="#2F3438"/>
<path d="M7.68203 9.58937C7.75041 9.56139 7.8126 9.52022 7.86506 9.4682C7.91752 9.41618 7.95921 9.35433 7.98777 9.28619C8.01632 9.21806 8.03118 9.14496 8.03148 9.07108C8.03178 8.99721 8.01753 8.92399 7.98953 8.85562C7.74208 8.24872 7.61615 7.59915 7.61891 6.94375C7.61891 4.11437 9.92078 1.8125 12.7502 1.8125C15.5827 1.8125 17.8877 4.11437 17.8877 6.94375C17.8922 8.11157 17.4945 9.24534 16.7614 10.1544C16.6751 10.2714 16.6375 10.4173 16.6563 10.5615C16.6752 10.7057 16.7491 10.837 16.8625 10.9279C16.976 11.0188 17.1203 11.0624 17.2651 11.0494C17.4099 11.0364 17.5441 10.9678 17.6395 10.8581C18.5336 9.74996 19.0188 8.36763 19.0133 6.94375C19.0133 3.49375 16.2039 0.6875 12.7502 0.6875C9.30016 0.6875 6.49391 3.49375 6.49391 6.94375C6.49391 7.75937 6.64703 8.54562 6.94828 9.28187C6.97626 9.35025 7.01744 9.41244 7.06946 9.4649C7.12148 9.51736 7.18332 9.55906 7.25146 9.58761C7.3196 9.61617 7.39269 9.63102 7.46657 9.63132C7.54045 9.63162 7.61366 9.61737 7.68203 9.58937ZM18.0708 12.7013C17.752 12.3637 17.3249 12.1488 16.8638 12.0941C16.4028 12.0394 15.9372 12.1483 15.5483 12.4019L13.7508 13.5737C13.7789 13.4412 13.7945 13.305 13.7945 13.1644C13.7929 12.7098 13.6357 12.2695 13.3492 11.9166C13.0627 11.5637 12.6641 11.3194 12.2195 11.2244L9.53891 10.6619C8.97491 10.5448 8.39317 10.542 7.82807 10.6537C7.26298 10.7653 6.72601 10.9891 6.24891 11.3119L5.75391 11.6481C5.74462 11.273 5.58925 10.9162 5.32087 10.6539C5.05249 10.3916 4.69231 10.2444 4.31703 10.2437H2.82766C2.33992 10.2444 1.87236 10.4385 1.52753 10.7834C1.18271 11.1284 0.988777 11.596 0.988281 12.0837V17.4719C0.988777 17.9596 1.18271 18.4272 1.52753 18.7722C1.87236 19.1171 2.33992 19.3112 2.82766 19.3119H4.31766C4.67969 19.3108 5.02799 19.1732 5.29298 18.9265C5.55797 18.6799 5.72012 18.3423 5.74703 17.9813L9.38453 18.8994C10.0428 19.0649 10.7309 19.0724 11.3927 18.9212L14.4164 18.2275C15.1723 18.0541 15.867 17.6789 16.4264 17.1419L18.0708 15.5631C18.4467 15.2 18.6645 14.7033 18.6769 14.1808C18.6893 13.6582 18.4953 13.1518 18.137 12.7712L18.0708 12.7013ZM4.63391 17.8719C4.63374 17.9555 4.60044 18.0357 4.54128 18.0949C4.48212 18.154 4.40194 18.1873 4.31828 18.1875H2.82766C2.43391 18.1875 2.11266 17.8669 2.11266 17.4725V12.0844C2.11266 11.69 2.43328 11.3694 2.82766 11.3694H4.31766C4.49203 11.3694 4.63328 11.5112 4.63328 11.685L4.63391 17.8719ZM17.2914 14.7519L15.647 16.3312C15.2345 16.7272 14.7224 17.0039 14.1652 17.1319L11.1414 17.8256C10.6533 17.9375 10.1457 17.9319 9.66016 17.8094L5.75828 16.8244V13.0062L6.88203 12.2425C7.2337 12.0044 7.62959 11.8392 8.04624 11.7569C8.46289 11.6745 8.89184 11.6767 9.30766 11.7631L11.9889 12.3256C12.197 12.3683 12.3818 12.4869 12.5074 12.6583C12.633 12.8297 12.6904 13.0416 12.6684 13.2529C12.6464 13.4643 12.5467 13.6599 12.3885 13.8017C12.2304 13.9436 12.0251 14.0216 11.8127 14.0206H9.96391C9.81472 14.0206 9.67165 14.0799 9.56616 14.1854C9.46067 14.2909 9.40141 14.4339 9.40141 14.5831C9.40141 14.7323 9.46067 14.8754 9.56616 14.9809C9.67165 15.0864 9.81472 15.1456 9.96391 15.1456H12.8102C13.1952 15.1456 13.5695 15.0344 13.892 14.8237L16.162 13.3438C16.3304 13.2342 16.5318 13.1872 16.7312 13.211C16.9306 13.2347 17.1154 13.3277 17.2533 13.4738L17.3202 13.5437C17.4751 13.7085 17.5589 13.9276 17.5535 14.1537C17.5481 14.3798 17.454 14.5947 17.2914 14.7519Z" fill="#2F3438"/>
</g>
<defs>
<clipPath id="clip0_60_23746">
<rect width="20" height="20" fill="white"/>
</clipPath>
</defs>
</svg>
