<svg width="16" height="20" viewBox="0 0 16 20" fill="none" xmlns="http://www.w3.org/2000/svg">
<path d="M13.8426 0.588379H2.16025C1.45731 0.588379 0.886719 1.15897 0.886719 1.86191V18.1413C0.886719 18.8443 1.45731 19.4119 2.16025 19.4119H13.8426C14.5426 19.4119 15.1132 18.8443 15.1132 18.1413V1.86191C15.1132 1.15897 14.5455 0.588379 13.8426 0.588379ZM5.46613 16.9854C5.46613 17.2413 5.26025 17.4472 5.00437 17.4472H3.58084C3.32495 17.4472 3.11907 17.2413 3.11907 16.9854V15.7266C3.11907 15.4707 3.32495 15.2649 3.58084 15.2649H5.00437C5.26025 15.2649 5.46613 15.4707 5.46613 15.7266V16.9854ZM5.46613 13.456C5.46613 13.709 5.26025 13.9149 5.00437 13.9149H3.58084C3.32495 13.9149 3.11907 13.709 3.11907 13.456V12.1943C3.11907 11.9413 3.32495 11.7354 3.58084 11.7354H5.00437C5.26025 11.7354 5.46613 11.9413 5.46613 12.1943V13.456ZM5.46613 9.92661C5.46613 10.1796 5.26025 10.3854 5.00437 10.3854H3.58084C3.32495 10.3854 3.11907 10.1796 3.11907 9.92661V8.66485C3.11907 8.41191 3.32495 8.20308 3.58084 8.20308H5.00437C5.26025 8.20308 5.46613 8.41191 5.46613 8.66485V9.92661ZM9.17201 16.9854C9.17201 17.2413 8.96613 17.4472 8.71319 17.4472H7.28672C7.03378 17.4472 6.8279 17.2413 6.8279 16.9854V15.7237C6.8279 15.4707 7.03378 15.2649 7.28672 15.2649H8.71319C8.96613 15.2649 9.17201 15.4707 9.17201 15.7237V16.9854ZM9.17201 13.456C9.17201 13.709 8.96613 13.9149 8.71319 13.9149H7.28672C7.03378 13.9149 6.8279 13.709 6.8279 13.456V12.1943C6.8279 11.9413 7.03378 11.7354 7.28672 11.7354H8.71319C8.96613 11.7354 9.17201 11.9413 9.17201 12.1943V13.456ZM9.17201 9.92661C9.17201 10.1796 8.96613 10.3854 8.71319 10.3854H7.28672C7.03378 10.3854 6.8279 10.1796 6.8279 9.92661V8.66485C6.8279 8.41191 7.03378 8.20308 7.28672 8.20308H8.71319C8.96613 8.20308 9.17201 8.41191 9.17201 8.66485V9.92661ZM12.8808 16.9854C12.8808 17.2413 12.675 17.4472 12.422 17.4472H10.9955C10.7426 17.4472 10.5367 17.2413 10.5367 16.9854V15.7237C10.5367 15.4707 10.7426 15.2649 10.9955 15.2649H12.422C12.675 15.2649 12.8808 15.4707 12.8808 15.7237V16.9854ZM12.8808 13.456C12.8808 13.709 12.675 13.9149 12.422 13.9149H10.9955C10.7426 13.9149 10.5367 13.709 10.5367 13.456V12.1943C10.5367 11.9413 10.7426 11.7354 10.9955 11.7354H12.422C12.675 11.7354 12.8808 11.9413 12.8808 12.1943V13.456ZM12.8808 9.92661C12.8808 10.1796 12.675 10.3854 12.422 10.3854H10.9955C10.7426 10.3854 10.5367 10.1796 10.5367 9.92661V8.66485C10.5367 8.41191 10.7426 8.20308 10.9955 8.20308H12.422C12.675 8.20308 12.8808 8.41191 12.8808 8.66485V9.92661ZM13.3485 5.54426C13.3485 5.93838 13.0279 6.25897 12.6338 6.25897H3.36613C2.97201 6.25897 2.65142 5.93838 2.65142 5.54426V3.06779C2.65142 2.67367 2.97201 2.35603 3.36613 2.35603H12.6338C13.0279 2.35603 13.3485 2.67367 13.3485 3.06779V5.54426Z" fill="#0056B0"/>
</svg>
