<svg width="20" height="20" viewBox="0 0 20 20" fill="none" xmlns="http://www.w3.org/2000/svg">
<path d="M4.46813 14.9997H2.54063C2.72747 13.7686 3.35419 12.647 4.30466 11.8426C5.25514 11.0382 6.46496 10.6055 7.71 10.6247H12.8975C13.8575 10.6133 14.8019 10.8675 15.6265 11.3592C16.4511 11.8509 17.1237 12.561 17.57 13.411C17.646 13.5584 17.7774 13.6695 17.9354 13.7199C18.0136 13.7449 18.0959 13.7543 18.1777 13.7474C18.2596 13.7406 18.3392 13.7177 18.4122 13.6801C18.4852 13.6424 18.55 13.5908 18.603 13.5281C18.656 13.4654 18.6962 13.3929 18.7211 13.3147C18.7461 13.2365 18.7555 13.1541 18.7486 13.0723C18.7418 12.9905 18.7189 12.9108 18.6812 12.8379C18.13 11.7835 17.2981 10.902 16.2773 10.2909C15.2565 9.6797 14.0866 9.36265 12.8969 9.37474H7.70937C6.02473 9.34949 4.3988 9.99319 3.18799 11.1648C1.97717 12.3363 1.28025 13.9402 1.25 15.6247C1.25 15.7905 1.31585 15.9495 1.43306 16.0667C1.55027 16.1839 1.70924 16.2497 1.875 16.2497H4.46813C4.63389 16.2497 4.79286 16.1839 4.91007 16.0667C5.02728 15.9495 5.09313 15.7905 5.09313 15.6247C5.09313 15.459 5.02728 15.3 4.91007 15.1828C4.79286 15.0656 4.63389 14.9997 4.46813 14.9997Z" fill="#2F3438"/>
<path d="M18.125 15H15.9594L13.6469 11.5281C13.5861 11.437 13.5025 11.3634 13.4044 11.3147C13.3063 11.2661 13.1971 11.2441 13.0877 11.2509C12.9784 11.2577 12.8728 11.2932 12.7815 11.3537C12.6902 11.4142 12.6164 11.4976 12.5675 11.5956L9.895 16.9406L8.625 15.25C8.56678 15.1724 8.49129 15.1094 8.40451 15.066C8.31772 15.0226 8.22203 15 8.125 15H6.875C6.70924 15 6.55027 15.0658 6.43306 15.1831C6.31585 15.3003 6.25 15.4592 6.25 15.625C6.25 15.7908 6.31585 15.9497 6.43306 16.0669C6.55027 16.1842 6.70924 16.25 6.875 16.25H7.8125L9.5 18.5C9.55822 18.5776 9.63371 18.6406 9.72049 18.684C9.80728 18.7274 9.90297 18.75 10 18.75H10.0563C10.1619 18.7399 10.2632 18.7032 10.3507 18.6431C10.4381 18.5831 10.5089 18.5018 10.5562 18.4069L13.1994 13.12L15.1019 15.9744C15.1595 16.0599 15.2375 16.1299 15.3288 16.178C15.4201 16.2261 15.5218 16.2508 15.625 16.25H18.125C18.2908 16.25 18.4497 16.1842 18.5669 16.0669C18.6842 15.9497 18.75 15.7908 18.75 15.625C18.75 15.4592 18.6842 15.3003 18.5669 15.1831C18.4497 15.0658 18.2908 15 18.125 15ZM10 8.75C10.7417 8.75 11.4667 8.53007 12.0834 8.11801C12.7001 7.70596 13.1807 7.12029 13.4645 6.43506C13.7484 5.74984 13.8226 4.99584 13.6779 4.26841C13.5333 3.54098 13.1761 2.8728 12.6517 2.34835C12.1272 1.8239 11.459 1.46675 10.7316 1.32206C10.0042 1.17736 9.25016 1.25162 8.56494 1.53545C7.87971 1.81928 7.29404 2.29993 6.88199 2.91661C6.46993 3.5333 6.25 4.25832 6.25 5C6.25099 5.99426 6.6464 6.94751 7.34945 7.65056C8.05249 8.3536 9.00574 8.74901 10 8.75ZM10 2.5C10.4945 2.5 10.9778 2.64662 11.3889 2.92133C11.8 3.19603 12.1205 3.58648 12.3097 4.04329C12.4989 4.50011 12.5484 5.00277 12.452 5.48773C12.3555 5.97268 12.1174 6.41814 11.7678 6.76777C11.4181 7.1174 10.9727 7.3555 10.4877 7.45197C10.0028 7.54843 9.50011 7.49892 9.04329 7.3097C8.58648 7.12048 8.19603 6.80005 7.92133 6.38893C7.64662 5.9778 7.5 5.49445 7.5 5C7.5 4.33696 7.76339 3.70108 8.23223 3.23223C8.70107 2.76339 9.33696 2.5 10 2.5Z" fill="#2F3438"/>
</svg>
