<svg width="20" height="20" viewBox="0 0 20 20" fill="none" xmlns="http://www.w3.org/2000/svg">
<path fill-rule="evenodd" clip-rule="evenodd" d="M8.62 2.09825C9.10817 1.74037 9.71799 1.58991 10.3166 1.67967C10.9152 1.76942 11.4541 2.09211 11.8158 2.57742L12.0758 2.39242C12.3584 2.19053 12.6831 2.0555 13.0255 1.99752C13.3679 1.93953 13.719 1.96012 14.0522 2.05773C14.3855 2.15533 14.6922 2.3274 14.9492 2.56092C15.2063 2.79445 15.4068 3.08334 15.5358 3.40575L16.3858 5.53075C16.9082 5.78923 17.3479 6.18864 17.6553 6.68387C17.9626 7.1791 18.1253 7.75041 18.125 8.33325V9.87825C18.6046 10.0147 19.0266 10.3038 19.3271 10.7017C19.6276 11.0996 19.7902 11.5846 19.7902 12.0833C19.7902 12.5819 19.6276 13.0669 19.3271 13.4648C19.0266 13.8627 18.6046 14.1518 18.125 14.2883V14.9999C18.125 15.8287 17.7958 16.6236 17.2097 17.2096C16.6237 17.7957 15.8288 18.1249 15 18.1249H5C4.1712 18.1249 3.37634 17.7957 2.79029 17.2096C2.20424 16.6236 1.875 15.8287 1.875 14.9999V8.33325C1.87508 7.63337 2.10997 6.95376 2.54208 6.4032C2.97419 5.85264 3.57852 5.46298 4.25833 5.29659L8.62 2.09825ZM8.13333 5.20825H6.49167L9.35833 3.10575C9.57702 2.94553 9.84953 2.87679 10.1181 2.91413C10.3866 2.95147 10.63 3.09194 10.7967 3.30575L8.13333 5.20825ZM14.375 3.86992C14.3164 3.72338 14.2252 3.59208 14.1084 3.48594C13.9916 3.37979 13.8523 3.30157 13.7008 3.25718C13.5493 3.2128 13.3898 3.20341 13.2342 3.22972C13.0785 3.25604 12.9309 3.31737 12.8025 3.40909L10.2833 5.20825H14.91L14.375 3.86992ZM15.8333 14.3749H16.875V14.9999C16.875 15.4972 16.6775 15.9741 16.3258 16.3257C15.9742 16.6774 15.4973 16.8749 15 16.8749H5C4.50272 16.8749 4.02581 16.6774 3.67418 16.3257C3.32254 15.9741 3.125 15.4972 3.125 14.9999V8.33325C3.125 7.83597 3.32254 7.35906 3.67418 7.00743C4.02581 6.6558 4.50272 6.45825 5 6.45825H15C15.4973 6.45825 15.9742 6.6558 16.3258 7.00743C16.6775 7.35906 16.875 7.83597 16.875 8.33325V9.79159H15.8333C15.2255 9.79159 14.6427 10.033 14.2129 10.4628C13.7831 10.8926 13.5417 11.4755 13.5417 12.0833C13.5417 12.691 13.7831 13.2739 14.2129 13.7037C14.6427 14.1335 15.2255 14.3749 15.8333 14.3749ZM14.7917 12.0833C14.7917 11.5083 15.2583 11.0416 15.8333 11.0416H17.5C17.7763 11.0416 18.0412 11.1513 18.2366 11.3467C18.4319 11.542 18.5417 11.807 18.5417 12.0833C18.5417 12.3595 18.4319 12.6245 18.2366 12.8198C18.0412 13.0152 17.7763 13.1249 17.5 13.1249H15.8333C15.2583 13.1249 14.7917 12.6583 14.7917 12.0833ZM7.89167 14.6083C8.00885 14.7253 8.16771 14.791 8.33333 14.791C8.49896 14.791 8.65781 14.7253 8.775 14.6083L11.275 12.1083C11.3854 11.9898 11.4455 11.8331 11.4426 11.6712C11.4398 11.5092 11.3742 11.3547 11.2597 11.2402C11.1452 11.1257 10.9907 11.0601 10.8288 11.0573C10.6669 11.0544 10.5101 11.1145 10.3917 11.2249L8.95833 12.6583V9.16659C8.95833 9.00083 8.89249 8.84186 8.77528 8.72465C8.65806 8.60744 8.49909 8.54159 8.33333 8.54159C8.16757 8.54159 8.0086 8.60744 7.89139 8.72465C7.77418 8.84186 7.70833 9.00083 7.70833 9.16659V12.6583L6.275 11.2249C6.21778 11.1635 6.14878 11.1143 6.07212 11.0801C5.99545 11.0459 5.91269 11.0276 5.82877 11.0261C5.74485 11.0246 5.66149 11.0401 5.58367 11.0715C5.50585 11.1029 5.43515 11.1497 5.3758 11.2091C5.31645 11.2684 5.26967 11.3391 5.23823 11.4169C5.2068 11.4947 5.19136 11.5781 5.19284 11.662C5.19432 11.7459 5.21269 11.8287 5.24685 11.9054C5.28101 11.982 5.33026 12.051 5.39167 12.1083L7.89167 14.6083Z" fill="#2F3438"/>
</svg>
