<svg width="20" height="20" viewBox="0 0 20 20" fill="none" xmlns="http://www.w3.org/2000/svg">
<g clip-path="url(#clip0_1_74366)">
<path d="M4.5 0.208496H15.5V5.79183H4.5V0.208496ZM4.5 17.5002V19.7918H15.5V13.8335H4.5V17.5002ZM6.58333 15.3335H13.375V16.1668H6.58333V15.3335ZM6.58333 17.4585H13.375V18.2918H6.58333V17.4585Z" fill="#0056B0"/>
<path d="M19.7904 16.6667V8.04167C19.7904 7.25 19.1654 6.625 18.3737 6.625H1.6237C0.832031 6.625 0.207031 7.25 0.207031 8.04167V16.6667H3.66536V13.8333H2.6237V13H17.3737V13.8333H16.332V16.6667H19.7904ZM15.9154 9.29167V8.45833H17.3737V9.29167H15.9154Z" fill="#0056B0"/>
</g>
<defs>
<clipPath id="clip0_1_74366">
<rect width="20" height="20" fill="white"/>
</clipPath>
</defs>
</svg>
