<svg width="16" height="17" viewBox="0 0 16 17" fill="none" xmlns="http://www.w3.org/2000/svg">
<g clip-path="url(#clip0_1_74359)">
<path d="M3.60156 0.666504H12.4016V5.13317H3.60156V0.666504ZM3.60156 14.4998V16.3332H12.4016V11.5665H3.60156V14.4998ZM5.26823 12.7665H10.7016V13.4332H5.26823V12.7665ZM5.26823 14.4665H10.7016V15.1332H5.26823V14.4665Z" fill="white"/>
<path d="M15.8346 13.8331V6.93314C15.8346 6.2998 15.3346 5.7998 14.7013 5.7998H1.3013C0.667969 5.7998 0.167969 6.2998 0.167969 6.93314V13.8331H2.93464V11.5665H2.1013V10.8998H13.9013V11.5665H13.068V13.8331H15.8346ZM12.7346 7.93314V7.26647H13.9013V7.93314H12.7346Z" fill="white"/>
</g>
<defs>
<clipPath id="clip0_1_74359">
<rect width="16" height="16" fill="white" transform="translate(0 0.5)"/>
</clipPath>
</defs>
</svg>
