<svg width="20" height="20" viewBox="0 0 20 20" fill="none" xmlns="http://www.w3.org/2000/svg">
<path d="M18.8 5.60027C18.7397 5.55383 18.6698 5.52147 18.5954 5.50555C18.521 5.48963 18.444 5.49056 18.37 5.50827L16.452 6.00027C15.744 5.96027 13.486 5.09227 12.2 4.54027L12.174 4.53027C10.466 3.91627 8.988 4.05427 7.752 4.93027C6.108 4.36827 4.00201 5.55427 3.35201 5.96027L1.624 5.51627C1.55017 5.49696 1.47288 5.49488 1.39811 5.51019C1.32334 5.5255 1.25309 5.55779 1.19278 5.60456C1.13248 5.65134 1.08373 5.71135 1.0503 5.77996C1.01688 5.84857 0.999667 5.92395 1 6.00027V13.0003C1 13.1329 1.05268 13.2601 1.14645 13.3538C1.24022 13.4476 1.3674 13.5003 1.5 13.5003H2.562L7.10801 17.0843C7.28249 17.2521 7.495 17.3752 7.7274 17.4431C7.9598 17.511 8.20518 17.5216 8.44257 17.474C8.67996 17.4265 8.90231 17.3222 9.09063 17.17C9.27895 17.0179 9.42764 16.8224 9.524 16.6003C9.75058 16.7301 10.0069 16.799 10.268 16.8003C10.5611 16.8004 10.8478 16.7147 11.0927 16.5536C11.3376 16.3926 11.5299 16.1634 11.646 15.8943C11.8721 16.0251 12.1287 16.0941 12.39 16.0943C12.6827 16.094 12.969 16.0081 13.2135 15.8471C13.458 15.6861 13.6501 15.4571 13.766 15.1883C13.9969 15.3194 14.2585 15.3867 14.524 15.3832C14.7895 15.3798 15.0493 15.3058 15.2767 15.1688C15.5042 15.0317 15.691 14.8366 15.8181 14.6035C15.9452 14.3704 16.008 14.1077 16 13.8423L17.07 13.5003H18.5C18.6326 13.5003 18.7598 13.4476 18.8536 13.3538C18.9473 13.2601 19 13.1329 19 13.0003V6.00027C19.0003 5.92259 18.9824 5.84593 18.9476 5.77645C18.9129 5.70697 18.8623 5.64663 18.8 5.60027ZM2 6.64027L2.89401 6.87027L2.536 10.2003L2.288 12.5003H2V6.64027ZM14.864 14.2323C14.7689 14.3239 14.6421 14.3751 14.51 14.3751C14.378 14.3751 14.2511 14.3239 14.156 14.2323L13.45 13.5263L10.622 10.6963C10.527 10.6108 10.4029 10.565 10.2751 10.5682C10.1474 10.5714 10.0258 10.6234 9.93515 10.7135C9.84454 10.8036 9.79187 10.925 9.78793 11.0527C9.784 11.1804 9.82911 11.3048 9.914 11.4003L12.744 14.2343C12.835 14.3287 12.8852 14.4551 12.8839 14.5862C12.8825 14.7173 12.8298 14.8426 12.7369 14.9352C12.6441 15.0278 12.5186 15.0802 12.3875 15.0811C12.2564 15.0821 12.1302 15.0315 12.036 14.9403L11.328 14.2323L9.2 12.1103C9.15352 12.0638 9.09833 12.0269 9.03759 12.0017C8.97685 11.9766 8.91175 11.9636 8.846 11.9636C8.78026 11.9636 8.71516 11.9766 8.65442 12.0017C8.59368 12.0269 8.53849 12.0638 8.492 12.1103C8.44552 12.1568 8.40864 12.2119 8.38348 12.2727C8.35832 12.3334 8.34537 12.3985 8.34537 12.4643C8.34537 12.53 8.35832 12.5951 8.38348 12.6559C8.40864 12.7166 8.44552 12.7718 8.492 12.8183L10.622 14.9403C10.6697 14.9865 10.7077 15.0417 10.7338 15.1027C10.7599 15.1638 10.7736 15.2294 10.7741 15.2958C10.7746 15.3622 10.7618 15.428 10.7366 15.4894C10.7114 15.5508 10.6742 15.6066 10.6272 15.6535C10.5802 15.7003 10.5243 15.7374 10.4628 15.7624C10.4013 15.7875 10.3355 15.8 10.2691 15.7994C10.2027 15.7987 10.1371 15.7848 10.0761 15.7585C10.0152 15.7323 9.96006 15.6941 9.914 15.6463L7.8 13.5263C7.75373 13.4798 7.69872 13.4429 7.63814 13.4177C7.57757 13.3925 7.51261 13.3795 7.447 13.3795C7.3814 13.3795 7.31644 13.3925 7.25587 13.4177C7.19529 13.4429 7.14028 13.4798 7.09401 13.5263C7.04739 13.5722 7.01046 13.627 6.98538 13.6875C6.96031 13.748 6.9476 13.8128 6.94801 13.8783C6.94778 13.944 6.96056 14.0091 6.98562 14.0699C7.01068 14.1306 7.04751 14.1858 7.09401 14.2323L8.508 15.6463C8.60156 15.7403 8.65407 15.8676 8.65407 16.0003C8.65407 16.1329 8.60156 16.2602 8.508 16.3543C8.41248 16.445 8.28576 16.4956 8.154 16.4956C8.02225 16.4956 7.89553 16.445 7.8 16.3543C7.78631 16.3399 7.7716 16.3265 7.756 16.3143L3.262 12.7783L3.764 8.14027L3.91 6.78827C4.546 6.38827 5.788 5.77027 6.81801 5.78827C6.5119 6.1417 6.23814 6.52189 6.00001 6.92427C5.77942 7.30014 5.70919 7.74554 5.80342 8.17105C5.89764 8.59656 6.14935 8.97067 6.50801 9.21827C7.21601 9.70227 8.508 10.1523 10.108 8.77027L14.864 13.5243C14.9571 13.6186 15.0093 13.7458 15.0093 13.8783C15.0093 14.0108 14.9571 14.138 14.864 14.2323ZM15.65 12.9063C15.6256 12.8755 15.5996 12.8461 15.572 12.8183L10.812 8.05827C11.012 7.83027 11.212 7.57627 11.412 7.28827C11.4575 7.23553 11.4914 7.17387 11.5117 7.10724C11.5319 7.04062 11.538 6.9705 11.5296 6.90137C11.5212 6.83225 11.4984 6.76565 11.4628 6.70584C11.4271 6.64602 11.3793 6.59432 11.3226 6.55403C11.2658 6.51374 11.2012 6.48576 11.1329 6.47188C11.0647 6.458 10.9943 6.45852 10.9263 6.47342C10.8583 6.48832 10.7941 6.51726 10.7379 6.55839C10.6817 6.59952 10.6348 6.65193 10.6 6.71227C9.712 7.97027 8.38401 9.28227 7.08001 8.39227C6.93194 8.28682 6.8291 8.12939 6.79203 7.95143C6.75495 7.77347 6.78637 7.58808 6.88001 7.43227C7.20413 6.8532 7.62797 6.33592 8.132 5.90427C8.14822 5.89271 8.16359 5.88001 8.178 5.86627C9.178 5.06627 10.378 4.94427 11.834 5.46627C12.212 5.62627 14.73 6.69227 16.05 6.94627L16.49 12.6443L15.65 12.9063ZM18 12.5003H17.464L17.03 6.88227L18 6.64027V12.5003Z" fill="#2F3438"/>
</svg>
