<svg width="20" height="20" viewBox="0 0 20 20" fill="none" xmlns="http://www.w3.org/2000/svg">
<path fill-rule="evenodd" clip-rule="evenodd" d="M4.375 2.8125C2.30406 2.8125 0.625 4.49156 0.625 6.5625V12.8125C0.625 14.8834 2.30406 16.5625 4.375 16.5625H11.25C11.4158 16.5625 11.5747 16.4967 11.6919 16.3794C11.8092 16.2622 11.875 16.1033 11.875 15.9375C11.875 15.7717 11.8092 15.6128 11.6919 15.4956C11.5747 15.3783 11.4158 15.3125 11.25 15.3125H4.375C3.71196 15.3125 3.07607 15.0491 2.60723 14.5803C2.13839 14.1114 1.875 13.4755 1.875 12.8125V7.8125H16.875V10C16.875 10.1658 16.9408 10.3247 17.0581 10.4419C17.1753 10.5592 17.3342 10.625 17.5 10.625C17.6658 10.625 17.8247 10.5592 17.9419 10.4419C18.0592 10.3247 18.125 10.1658 18.125 10V6.5625C18.125 4.49156 16.4459 2.8125 14.375 2.8125H4.375ZM16.875 6.5625H1.875C1.875 5.89946 2.13839 5.26357 2.60723 4.79473C3.07607 4.32589 3.71196 4.0625 4.375 4.0625H14.375C15.038 4.0625 15.6739 4.32589 16.1428 4.79473C16.6116 5.26357 16.875 5.89946 16.875 6.5625Z" fill="#2F3438"/>
<path d="M18.125 14.0625C18.125 13.3995 17.8616 12.7636 17.3928 12.2947C16.9239 11.8259 16.288 11.5625 15.625 11.5625H11.25C11.0842 11.5625 10.9253 11.6283 10.8081 11.7456C10.6908 11.8628 10.625 12.0217 10.625 12.1875C10.625 12.3533 10.6908 12.5122 10.8081 12.6294C10.9253 12.7467 11.0842 12.8125 11.25 12.8125H15.625C15.9565 12.8125 16.2745 12.9442 16.5089 13.1786C16.7433 13.413 16.875 13.731 16.875 14.0625C16.875 14.394 16.7433 14.712 16.5089 14.9464C16.2745 15.1808 15.9565 15.3125 15.625 15.3125H15.1025L15.2856 15.1294C15.3453 15.0717 15.3929 15.0028 15.4257 14.9265C15.4584 14.8503 15.4757 14.7682 15.4764 14.6853C15.4771 14.6023 15.4613 14.52 15.4299 14.4432C15.3985 14.3663 15.3521 14.2966 15.2934 14.2379C15.2347 14.1792 15.1649 14.1328 15.0881 14.1014C15.0113 14.0699 14.929 14.0541 14.846 14.0548C14.763 14.0556 14.681 14.0728 14.6047 14.1056C14.5285 14.1383 14.4595 14.1859 14.4019 14.2456L13.1519 15.4956C13.0347 15.6128 12.9689 15.7718 12.9689 15.9375C12.9689 16.1032 13.0347 16.2622 13.1519 16.3794L14.4019 17.6294C14.4595 17.6891 14.5285 17.7367 14.6047 17.7694C14.681 17.8022 14.763 17.8194 14.846 17.8202C14.929 17.8209 15.0113 17.8051 15.0881 17.7736C15.1649 17.7422 15.2347 17.6958 15.2934 17.6371C15.3521 17.5784 15.3985 17.5087 15.4299 17.4318C15.4613 17.355 15.4771 17.2727 15.4764 17.1897C15.4757 17.1068 15.4584 17.0247 15.4257 16.9485C15.3929 16.8722 15.3453 16.8033 15.2856 16.7456L15.1025 16.5625H15.625C16.288 16.5625 16.9239 16.2991 17.3928 15.8303C17.8616 15.3614 18.125 14.7255 18.125 14.0625ZM3.75 9.0625C3.58424 9.0625 3.42527 9.12835 3.30806 9.24556C3.19085 9.36277 3.125 9.52174 3.125 9.6875C3.125 9.85326 3.19085 10.0122 3.30806 10.1294C3.42527 10.2467 3.58424 10.3125 3.75 10.3125H6.25C6.41576 10.3125 6.57473 10.2467 6.69194 10.1294C6.80915 10.0122 6.875 9.85326 6.875 9.6875C6.875 9.52174 6.80915 9.36277 6.69194 9.24556C6.57473 9.12835 6.41576 9.0625 6.25 9.0625H3.75Z" fill="#2F3438"/>
</svg>
