<svg width="20" height="20" viewBox="0 0 20 20" fill="none" xmlns="http://www.w3.org/2000/svg">
<path d="M7.59883 9.39823C7.4392 9.39823 7.28611 9.33482 7.17324 9.22195C7.06036 9.10908 6.99695 8.95599 6.99695 8.79636V6.99636C6.98885 6.91281 6.99831 6.82849 7.02473 6.74882C7.05114 6.66914 7.09394 6.59588 7.15035 6.53372C7.20677 6.47157 7.27556 6.4219 7.35231 6.38791C7.42906 6.35392 7.51208 6.33637 7.59602 6.33637C7.67996 6.33637 7.76297 6.35392 7.83972 6.38791C7.91647 6.4219 7.98526 6.47157 8.04168 6.53372C8.0981 6.59588 8.14089 6.66914 8.16731 6.74882C8.19372 6.82849 8.20318 6.91281 8.19508 6.99636V8.79636C8.19509 8.95502 8.13245 9.10726 8.02079 9.21997C7.90913 9.33269 7.75748 9.39675 7.59883 9.39823ZM10.0007 9.39823C9.84108 9.39823 9.68799 9.33482 9.57511 9.22195C9.46224 9.10908 9.39883 8.95599 9.39883 8.79636V6.40011C9.41327 6.25124 9.48262 6.11309 9.59337 6.01256C9.70412 5.91204 9.84833 5.85635 9.99789 5.85635C10.1475 5.85635 10.2917 5.91204 10.4024 6.01256C10.5132 6.11309 10.5825 6.25124 10.597 6.40011V8.80198C10.5955 8.95967 10.5322 9.11047 10.4207 9.22198C10.3092 9.33348 10.1584 9.39677 10.0007 9.39823ZM12.4026 9.39823C12.243 9.39823 12.0899 9.33482 11.977 9.22195C11.8641 9.10908 11.8007 8.95599 11.8007 8.79636V5.20198C11.7926 5.11844 11.8021 5.03412 11.8285 4.95444C11.8549 4.87477 11.8977 4.8015 11.9541 4.73935C12.0105 4.67719 12.0793 4.62753 12.1561 4.59354C12.2328 4.55955 12.3158 4.54199 12.3998 4.54199C12.4837 4.54199 12.5667 4.55955 12.6435 4.59354C12.7202 4.62753 12.789 4.67719 12.8454 4.73935C12.9018 4.8015 12.9446 4.87477 12.9711 4.95444C12.9975 5.03412 13.0069 5.11844 12.9988 5.20198V8.80198C12.9974 8.95967 12.9341 9.11047 12.8226 9.22198C12.7111 9.33348 12.5603 9.39677 12.4026 9.39823Z" fill="#2F3438"/>
<path d="M14.7989 19H5.20266C4.56564 19 3.95472 18.7469 3.50428 18.2965C3.05384 17.8461 2.80078 17.2351 2.80078 16.5981V5.725C2.8001 5.28481 2.89654 4.8499 3.08322 4.45126C3.2699 4.05262 3.54223 3.70007 3.88078 3.41875L5.95078 1.6975C6.48939 1.24866 7.16781 1.00196 7.86891 1L14.7989 1C15.4359 1 16.0469 1.25305 16.4973 1.70349C16.9477 2.15393 17.2008 2.76486 17.2008 3.40188V16.5981C17.2008 17.2351 16.9477 17.8461 16.4973 18.2965C16.0469 18.7469 15.4359 19 14.7989 19ZM7.86891 2.19813C7.45743 2.20462 7.06052 2.35148 6.74391 2.61437L4.64578 4.34125C4.4428 4.5101 4.27957 4.72167 4.16775 4.96086C4.05594 5.20005 3.99829 5.46096 3.99891 5.725V16.5981C4.00039 16.9154 4.12709 17.2193 4.35147 17.4437C4.57584 17.6681 4.87973 17.7948 5.19703 17.7962H14.7989C15.1162 17.7948 15.4201 17.6681 15.6445 17.4437C15.8688 17.2193 15.9956 16.9154 15.997 16.5981V3.40188C15.9956 3.08457 15.8688 2.78068 15.6445 2.55631C15.4201 2.33193 15.1162 2.20523 14.7989 2.20375L7.86891 2.19813Z" fill="#2F3438"/>
<path d="M13.6002 15.4002H6.40023C6.31668 15.4083 6.23236 15.3989 6.15268 15.3725C6.07301 15.346 5.99974 15.3033 5.93759 15.2468C5.87543 15.1904 5.82577 15.1216 5.79178 15.0449C5.75779 14.9681 5.74023 14.8851 5.74023 14.8012C5.74023 14.7172 5.75779 14.6342 5.79178 14.5575C5.82577 14.4807 5.87543 14.4119 5.93759 14.3555C5.99974 14.2991 6.07301 14.2563 6.15268 14.2299C6.23236 14.2035 6.31668 14.194 6.40023 14.2021H13.6002C13.6838 14.194 13.7681 14.2035 13.8478 14.2299C13.9274 14.2563 14.0007 14.2991 14.0629 14.3555C14.125 14.4119 14.1747 14.4807 14.2087 14.5575C14.2427 14.6342 14.2602 14.7172 14.2602 14.8012C14.2602 14.8851 14.2427 14.9681 14.2087 15.0449C14.1747 15.1216 14.125 15.1904 14.0629 15.2468C14.0007 15.3033 13.9274 15.346 13.8478 15.3725C13.7681 15.3989 13.6838 15.4083 13.6002 15.4002ZM13.6002 12.4021H6.40023C6.25136 12.3877 6.1132 12.3183 6.01268 12.2076C5.91216 12.0968 5.85647 11.9526 5.85647 11.803C5.85647 11.6535 5.91216 11.5093 6.01268 11.3985C6.1132 11.2878 6.25136 11.2184 6.40023 11.204H13.6002C13.6838 11.1959 13.7681 11.2053 13.8478 11.2318C13.9274 11.2582 14.0007 11.301 14.0629 11.3574C14.125 11.4138 14.1747 11.4826 14.2087 11.5593C14.2427 11.6361 14.2602 11.7191 14.2602 11.803C14.2602 11.887 14.2427 11.97 14.2087 12.0468C14.1747 12.1235 14.125 12.1923 14.0629 12.2487C14.0007 12.3051 13.9274 12.3479 13.8478 12.3743C13.7681 12.4008 13.6838 12.4102 13.6002 12.4021Z" fill="#2F3438"/>
</svg>
