<svg width="20" height="20" viewBox="0 0 20 20" fill="none" xmlns="http://www.w3.org/2000/svg">
<g clip-path="url(#clip0_60_23753)">
<path d="M5.62258 14.9536C6.3507 14.3866 6.82039 13.5025 6.82039 12.5104C6.82039 10.8031 5.43121 9.41406 3.72391 9.41406C2.0166 9.41406 0.627578 10.8031 0.627578 12.5104C0.627578 13.5025 1.09727 14.3866 1.82523 14.9536C0.797774 15.5649 0 16.7194 0 18.1589V19.4141C0 19.7377 0.262305 20 0.585938 20H6.86203C7.18551 20 7.44797 19.7377 7.44797 19.4141V18.1589C7.44797 16.7196 6.65039 15.5651 5.62258 14.9536ZM1.79945 12.5104C1.79945 11.4493 2.66281 10.5859 3.72406 10.5859C4.78516 10.5859 5.64852 11.4493 5.64852 12.5104C5.64852 13.5716 4.78516 14.435 3.72406 14.435C2.66281 14.435 1.79945 13.5716 1.79945 12.5104ZM6.27609 18.8281H1.17188V18.1589C1.17188 16.7493 2.3123 15.6068 3.72391 15.6068C5.13352 15.6068 6.27594 16.7473 6.27594 18.1589V18.8281H6.27609ZM17.5312 0H10C8.63648 0 7.53125 1.1032 7.53125 2.46875V13.7655C7.53125 14.2448 8.0809 14.5252 8.46875 14.2343L10.8229 12.4687H17.5313C18.8948 12.4688 20 11.3655 20 10V2.46875C20 1.10516 18.8968 0 17.5312 0ZM18.8281 10C18.8281 10.7169 18.2484 11.2969 17.5312 11.2969H10.6276C10.5008 11.2969 10.3775 11.338 10.2761 11.4141L8.7032 12.5937V2.46875C8.70312 1.75188 9.28281 1.17188 10 1.17188H17.5312C18.2481 1.17188 18.8281 1.75156 18.8281 2.46875V10Z" fill="#2F3438"/>
<path d="M16.903 3.1377H10.627C10.3033 3.1377 10.041 3.40016 10.041 3.72363C10.041 4.04727 10.3033 4.30957 10.627 4.30957H16.903C17.2266 4.30957 17.489 4.04727 17.489 3.72363C17.489 3.40016 17.2267 3.1377 16.903 3.1377ZM16.903 5.64824H10.627C10.3033 5.64824 10.041 5.91051 10.041 6.23418C10.041 6.55762 10.3033 6.82012 10.627 6.82012H16.903C17.2266 6.82012 17.489 6.55762 17.489 6.23418C17.489 5.91051 17.2267 5.64824 16.903 5.64824ZM13.7649 8.15859H10.627C10.3033 8.15859 10.041 8.4209 10.041 8.74453C10.041 9.06816 10.3033 9.33047 10.627 9.33047H13.7649C14.0886 9.33047 14.3509 9.06816 14.3509 8.74453C14.3509 8.4209 14.0886 8.15859 13.7649 8.15859Z" fill="#2F3438"/>
</g>
<defs>
<clipPath id="clip0_60_23753">
<rect width="20" height="20" fill="white"/>
</clipPath>
</defs>
</svg>
