<svg width="24" height="24" viewBox="0 0 24 24" fill="none" xmlns="http://www.w3.org/2000/svg">
<g clip-path="url(#clip0_1_74132)">
<path d="M1.37391 12.5318L0 18.094V5.79262C0 4.48527 1.06969 3.41559 2.37703 3.41559H4.13766V9.5848C2.81812 10.0367 1.70437 11.1926 1.37391 12.5318ZM20.9302 7.96387C20.9302 7.18012 20.4998 6.49152 19.8633 6.12637V9.38184H20.9302V7.96387ZM6.07219 9.38137V3.01152C6.07219 2.22871 6.7125 1.5898 7.49391 1.5898H17.1539V1.07559C17.1539 0.719336 16.8614 0.428711 16.507 0.428711H5.55797C5.20172 0.428711 4.91109 0.719805 4.91109 1.07559V9.40668C5.04656 9.39074 5.18344 9.38137 5.32031 9.38137H6.07219ZM7.49391 2.36465H18.4416C18.7978 2.36465 19.0884 2.65574 19.0884 3.01152V9.38137H6.84656V3.01152C6.84656 2.65527 7.13766 2.36465 7.49391 2.36465ZM7.935 4.3484C7.935 4.56215 8.10891 4.73512 8.32312 4.73512H17.6137C17.8266 4.73512 18.0005 4.56215 18.0005 4.3484C18.0005 4.13465 17.8266 3.96168 17.6137 3.96168H8.32312C8.10891 3.96168 7.935 4.13418 7.935 4.3484ZM7.935 6.47699C7.935 6.69074 8.10891 6.86371 8.32312 6.86371H12.9098C13.1236 6.86371 13.2966 6.69074 13.2966 6.47699C13.2966 6.26324 13.1236 6.09027 12.9098 6.09027H8.32312C8.10891 6.09027 7.935 6.26277 7.935 6.47699ZM7.935 8.60559C7.935 8.81934 8.10891 8.99371 8.32312 8.99371H17.6137C17.8266 8.99371 18.0005 8.81981 18.0005 8.60559C18.0005 8.39277 17.8266 8.21887 17.6137 8.21887H8.32312C8.10891 8.21887 7.935 8.39277 7.935 8.60559ZM12.6333 15.8431V14.0253H11.3672V15.8431C11.3672 16.0568 11.1942 16.2312 10.9805 16.2312H9.16125V17.4964H10.9805C11.1942 17.4964 11.3672 17.6703 11.3672 17.8845V19.7023H12.6333V17.8845C12.6333 17.6707 12.8062 17.4964 13.02 17.4964H14.8378V16.2312H13.02C12.8062 16.2312 12.6333 16.0573 12.6333 15.8431ZM23.9227 12.7179L21.8733 21.0092C21.6061 22.0868 20.7028 23.014 19.6622 23.3918C19.342 23.5076 19.0097 23.5714 18.6778 23.5714H2.37703C1.11469 23.5714 0.045 22.8725 0.00140625 21.5398C0.0065625 21.3682 0.031875 21.1915 0.0759375 21.0096L2.12625 12.7184C2.47453 11.3098 3.91219 10.1567 5.32078 10.1567H21.9933C23.4028 10.1562 24.2705 11.3093 23.9227 12.7179ZM15.6127 16.1473C15.6127 15.9575 15.5358 15.7845 15.4106 15.6598C15.2859 15.5351 15.113 15.4564 14.9217 15.4564H13.4072V13.9414C13.4072 13.7689 13.342 13.609 13.2342 13.4871C13.2248 13.4754 13.2155 13.4646 13.2052 13.4539C13.0805 13.3292 12.9075 13.2504 12.7177 13.2504H11.2837C11.1098 13.2504 10.9514 13.317 10.8281 13.4243C10.8173 13.4323 10.807 13.4431 10.7962 13.4534C10.6711 13.5781 10.5928 13.7511 10.5928 13.9409V15.4559H9.07828C8.88844 15.4559 8.71547 15.5342 8.59078 15.6593C8.46609 15.7845 8.38875 15.957 8.38875 16.1468V17.5807C8.38875 17.7706 8.46562 17.9436 8.59078 18.0682C8.71594 18.1929 8.88844 18.2703 9.07828 18.2703H10.5928V19.7848C10.5928 19.9601 10.6594 20.1195 10.7681 20.2418C10.7761 20.2526 10.7855 20.2629 10.7962 20.2723C10.9209 20.397 11.0939 20.4757 11.2837 20.4757H12.7177C12.9075 20.4757 13.0805 20.3975 13.2052 20.2723H13.2037C13.3298 20.1462 13.4072 19.9732 13.4072 19.7848V18.2703H14.9217C15.113 18.2703 15.2859 18.1934 15.4106 18.0682C15.5358 17.9436 15.6127 17.7706 15.6127 17.5807V16.1473Z" fill="white"/>
</g>
<defs>
<clipPath id="clip0_1_74132">
<rect width="24" height="24" fill="white"/>
</clipPath>
</defs>
</svg>
