<svg width="24" height="24" viewBox="0 0 24 24" fill="none" xmlns="http://www.w3.org/2000/svg">
<path fill-rule="evenodd" clip-rule="evenodd" d="M20 12.9474V23.0526C19.9995 23.3037 19.8981 23.5444 19.718 23.722C19.5379 23.8995 19.2938 23.9995 19.0391 24H3.96087C3.70619 23.9995 3.46208 23.8995 3.28199 23.722C3.10191 23.5444 3.00051 23.3037 3 23.0526V12.9474C3.00051 12.6963 3.10191 12.4556 3.28199 12.278C3.46208 12.1005 3.70619 12.0005 3.96087 12H19.0391C19.2938 12.0005 19.5379 12.1005 19.718 12.278C19.8981 12.4556 19.9995 12.6963 20 12.9474ZM10.5391 21.3006V21.4737C10.5389 21.5567 10.5553 21.6389 10.5874 21.7157C10.6195 21.7924 10.6667 21.8621 10.7262 21.9208C10.7857 21.9795 10.8564 22.026 10.9343 22.0577C11.0121 22.0893 11.0955 22.1055 11.1797 22.1053H11.8203C11.9045 22.1055 11.9879 22.0893 12.0657 22.0577C12.1436 22.026 12.2143 21.9795 12.2738 21.9208C12.3333 21.8621 12.3805 21.7924 12.4126 21.7157C12.4447 21.6389 12.4611 21.5567 12.4609 21.4737V21.3006C12.8055 21.0227 13.3071 20.8011 13.6447 20.8402C14.7048 20.9627 15.3159 22.0825 15.3159 22.0825C15.3478 22.1397 15.3968 22.1857 15.4563 22.2142C15.5157 22.2428 15.5827 22.2525 15.6479 22.2421C15.7132 22.2316 15.7736 22.2015 15.8208 22.1559C15.868 22.1102 15.8998 22.0513 15.9117 21.9872C16.5497 18.5425 15.7688 16.2613 14.9578 15.096C14.5709 14.5396 14.1616 14.2251 13.8733 14.1234C13.4499 13.9737 13.0348 14.0615 12.6889 14.2339C12.6041 14.2765 12.5219 14.3242 12.4429 14.3766C12.4092 14.239 12.3294 14.1165 12.2165 14.0291C12.1035 13.9417 11.9639 13.8943 11.8203 13.8947H11.1797C11.0361 13.8943 10.8965 13.9417 10.7835 14.0291C10.6706 14.1165 10.5908 14.239 10.5571 14.3766C10.4781 14.3242 10.3959 14.2765 10.3111 14.2339C9.96517 14.0615 9.55008 13.9737 9.12665 14.1234C8.83839 14.2251 8.42906 14.5396 8.04215 15.096C7.23118 16.2613 6.45031 18.5425 7.08833 21.9872C7.10022 22.0513 7.13195 22.1102 7.17917 22.1559C7.2264 22.2015 7.28679 22.2316 7.35207 22.2421C7.41734 22.2525 7.4843 22.2428 7.54374 22.2142C7.60319 22.1857 7.65221 22.1397 7.68407 22.0825C7.68407 22.0825 8.29518 20.9627 9.35534 20.8402C9.69292 20.8011 10.1945 21.0227 10.5391 21.3006ZM12.4609 17.2421C12.5275 17.1423 12.6742 16.9472 12.8837 16.7975C13.0534 16.6768 13.2686 16.5834 13.5217 16.632C13.8586 16.6964 14.1981 16.9522 14.4915 17.2232C14.9732 17.6691 15.3275 18.1781 15.3275 18.1781C15.3527 18.2147 15.3854 18.2457 15.4235 18.2691C15.4652 18.5855 15.4927 18.9221 15.5017 19.2802C15.286 19.0023 15.0443 18.745 14.7798 18.5116C14.439 18.2211 14.0668 18.0215 13.719 18.0019C13.1918 17.9716 12.769 18.1743 12.4609 18.4112V17.2421ZM12.4609 19.3143C12.5877 19.1255 13.006 18.5937 13.6825 18.6322C13.9989 18.6505 14.3211 18.9278 14.6119 19.2259C15.0501 19.6762 15.3966 20.2137 15.478 20.3444C15.4601 20.6034 15.4338 20.8712 15.3966 21.1478C15.027 20.7505 14.455 20.2977 13.7196 20.2124C13.3692 20.172 12.8843 20.3141 12.4609 20.5459V19.3143ZM10.5391 15.1762V16.3213C10.5236 16.3091 10.5078 16.2973 10.4917 16.2859C10.1913 16.0718 9.80503 15.9265 9.35662 16.0118C8.91462 16.0964 8.45532 16.4072 8.07098 16.7627C7.99603 16.8316 7.92428 16.9017 7.85574 16.9718C7.96119 16.6255 8.09731 16.2891 8.26251 15.9663C8.63469 15.2476 9.05106 14.8213 9.34317 14.7177C9.58659 14.6318 9.8236 14.6987 10.0222 14.7973C10.2547 14.9135 10.4411 15.0789 10.5391 15.1762ZM7.57645 18.2691C7.61459 18.2457 7.64732 18.2147 7.67254 18.1781C7.67254 18.1781 8.02678 17.6691 8.50849 17.2232C8.80188 16.9522 9.14139 16.6964 9.47833 16.632C9.73136 16.5834 9.94659 16.6768 10.1163 16.7975C10.3258 16.9472 10.4725 17.1423 10.5391 17.2421V18.4112C10.231 18.1743 9.80823 17.9716 9.28103 18.0019C8.9332 18.0215 8.56102 18.2211 8.22023 18.5116C7.95375 18.7389 7.70392 19.0206 7.4983 19.2802C7.50727 18.9221 7.53481 18.5855 7.57645 18.2691ZM7.522 20.3438C7.60399 20.2131 7.95055 19.6762 8.38806 19.2259C8.67889 18.9278 9.0011 18.6505 9.31754 18.6322C9.994 18.5937 10.4123 19.1255 10.5391 19.3143V20.5459C10.1157 20.3141 9.63079 20.172 9.28039 20.2124C8.54501 20.2977 7.97297 20.7505 7.60335 21.1472C7.56793 20.8802 7.5408 20.6123 7.522 20.3438ZM12.4609 15.1762C12.5589 15.0789 12.7453 14.9135 12.9778 14.7973C13.1764 14.6987 13.4134 14.6318 13.6568 14.7177C13.9489 14.8213 14.3653 15.2476 14.7375 15.9663C14.8874 16.2556 15.0264 16.5909 15.1443 16.9718C15.0744 16.9002 15.0027 16.8305 14.929 16.7627C14.5447 16.4072 14.0854 16.0964 13.6434 16.0118C13.195 15.9265 12.8087 16.0718 12.5083 16.2859C12.4922 16.2973 12.4764 16.3091 12.4609 16.3213V15.1762Z" fill="white"/>
<path d="M17.4343 10.9955H6C6.57911 9.54888 7.78762 8.73148 9.28632 8.79348C9.28963 8.79361 9.29294 8.79361 9.29638 8.79361L10.1674 8.79183C10.2106 8.79175 10.2529 8.77963 10.2896 8.75684C10.3263 8.73406 10.3559 8.70149 10.3751 8.66282C10.4722 8.46701 10.6368 8.07161 10.6486 7.6241C10.6491 7.60237 10.6493 7.58145 10.649 7.56138C10.8787 7.66633 11.0691 7.71759 11.1709 7.74C11.3602 7.78177 11.5535 7.80285 11.7474 7.80285C11.9956 7.80285 12.1942 7.76818 12.3167 7.73932C12.4779 7.70123 12.6349 7.64705 12.7853 7.57759C12.7853 7.59257 12.7854 7.6081 12.7858 7.62406C12.7977 8.07169 12.9623 8.46692 13.0593 8.66277C13.0785 8.70144 13.1081 8.734 13.1448 8.75678C13.1815 8.77957 13.2238 8.79169 13.267 8.79178L14.138 8.79357C14.1413 8.79357 14.1448 8.79357 14.1481 8.79344C15.6467 8.73148 16.8552 9.54875 17.4343 10.9955ZM14.7371 2.03076C14.7597 2.25547 14.641 2.48497 14.5351 2.6599C14.5176 2.68863 14.4654 2.7691 14.4083 2.85393C14.3034 2.65905 14.1409 2.38787 13.8813 2.05894C13.7371 1.87603 13.6688 1.80066 13.6107 1.74388C13.5569 1.69134 13.4429 1.58643 13.2819 1.47448L13.2744 1.46939C13.2054 1.42096 13.1057 1.35153 12.9907 1.35153C12.9715 1.35153 12.9517 1.35344 12.9315 1.35773C12.8962 1.36519 12.8628 1.37986 12.8335 1.40083C12.8042 1.4218 12.7795 1.44861 12.7611 1.47957C12.6926 1.59233 12.6071 1.68102 12.5072 1.74349C12.3156 1.86313 12.1142 1.8582 11.9014 1.85294L11.8836 1.85252C11.8517 1.85184 11.0907 1.83448 10.2523 1.89241L10.2139 1.89504C9.90851 1.91579 9.56221 1.93947 9.25543 2.10311C9.0732 2.20021 8.9416 2.33881 8.84505 2.49299C8.80766 2.04149 8.82854 1.78271 8.84696 1.72741C8.88532 1.63651 9.03178 1.32476 9.34781 1.01933C9.98973 0.398927 11.0902 0.145911 11.3042 0.101478C11.7238 0.0144374 12.1216 -0.016797 12.4868 0.0084961C12.7462 0.0265323 12.9622 0.0580214 13.1471 0.104915C13.2612 0.133646 13.4141 0.192083 13.4961 0.306369C13.5342 0.359459 13.5636 0.428209 13.5946 0.500693C13.6439 0.616083 13.6998 0.746877 13.8083 0.862648C13.9049 0.96607 14.0122 1.04254 14.1159 1.11639C14.2002 1.17648 14.2798 1.23313 14.3432 1.29789C14.5208 1.47932 14.7117 1.77621 14.7371 2.03076Z" fill="white"/>
<path d="M14.3079 3.50221C14.7027 3.63546 14.7018 4.08501 14.692 4.22034C14.6653 4.58985 14.4602 4.92129 14.2349 4.95923C14.1889 4.96695 14.1464 4.9883 14.1128 5.0205C14.0792 5.0527 14.056 5.09427 14.0463 5.13981C13.9294 5.68824 13.712 6.1624 13.4173 6.51132C13.2132 6.75296 13.0121 6.90218 12.9353 6.95497C12.8285 7.02826 12.579 7.20005 12.2086 7.28735C12.0727 7.31939 11.7094 7.3836 11.2696 7.28667C11.1362 7.25726 10.8177 7.16759 10.4752 6.93239V6.93227C10.4188 6.89363 10.364 6.85261 10.3111 6.80932C10.1564 6.68239 9.77343 6.32455 9.5645 5.74353C9.49741 5.55706 9.45064 5.32051 9.43095 5.17473C9.42493 5.13015 9.4061 5.08827 9.37673 5.05419C9.34737 5.02011 9.30873 4.99529 9.26553 4.98274C8.9733 4.89774 8.72864 4.6227 8.65688 4.29818C8.61673 4.11595 8.60214 3.76392 8.95751 3.45353L8.95777 3.45327C9.00589 3.41338 9.03848 3.35605 9.05075 3.28934C9.12803 2.86699 9.25827 2.62773 9.4728 2.51344C9.69199 2.39657 9.97297 2.37743 10.2446 2.35888L10.2832 2.35625C11.0994 2.29985 11.8639 2.31721 11.8716 2.31746L11.8892 2.31789C12.1357 2.32378 12.4426 2.33138 12.7523 2.13799C12.8627 2.06911 12.9612 1.9819 13.0464 1.87793C13.1683 1.96565 13.2527 2.04475 13.2849 2.07624C13.3241 2.11461 13.3791 2.17389 13.5157 2.34704C13.8446 2.76399 14.0039 3.08058 14.0894 3.25068C14.1319 3.33496 14.1572 3.38529 14.1911 3.42531C14.1923 3.42684 14.1936 3.42832 14.1949 3.42985C14.1972 3.43261 14.1997 3.43537 14.2023 3.43795C14.2104 3.44661 14.2195 3.45472 14.2291 3.46214C14.2323 3.46478 14.2355 3.46711 14.2389 3.46932C14.2445 3.47331 14.2503 3.477 14.2565 3.48031C14.2598 3.48239 14.2635 3.484 14.2669 3.48595C14.269 3.48693 14.2711 3.48803 14.2731 3.48884C14.284 3.49435 14.2959 3.4989 14.3079 3.50221Z" fill="white"/>
</svg>
