<svg width="24" height="24" viewBox="0 0 24 24" fill="none" xmlns="http://www.w3.org/2000/svg">
<path d="M12.0753 8.97766C12.2306 9.00236 12.7 9.07295 13.96 9.26354L13.4411 12.6906C12.9153 12.6094 12.2729 12.5141 11.4894 12.3941C11.2703 12.3613 11.0598 12.2855 10.8699 12.1712C10.6801 12.0569 10.5148 11.9062 10.3833 11.7278C10.2518 11.5495 10.1568 11.3469 10.1038 11.1318C10.0507 10.9167 10.0406 10.6932 10.0741 10.4741L10.0882 10.3824C10.2259 9.46119 11.087 8.82942 12.0082 8.96707L12.0753 8.97766ZM17.6729 11.5294L17.6553 11.6212C17.6225 11.8405 17.5468 12.0512 17.4326 12.2412C17.3183 12.4312 17.1677 12.5968 16.9894 12.7286C16.8111 12.8604 16.6085 12.9557 16.3933 13.0091C16.1781 13.0626 15.9545 13.0731 15.7353 13.04C15.7212 13.04 15.7106 13.0365 15.7035 13.0365C15.7 13.0365 15.6964 13.033 15.6929 13.033C15.6823 13.033 15.6753 13.0294 15.6717 13.0294C15.5306 13.0082 15.1 12.9447 13.967 12.7682L14.4823 9.34472V9.34119C14.9729 9.41883 15.5553 9.50707 16.2541 9.61295C17.1753 9.7506 17.8106 10.6118 17.6729 11.5294ZM4.65291 11.4235H1.39174C1.01409 11.4235 0.707031 11.7306 0.707031 12.1118V19.7388C0.707031 20.1165 1.01409 20.4235 1.39174 20.4235H4.65291C5.03409 20.4235 5.34115 20.1165 5.34115 19.7388V12.1118C5.34115 11.7306 5.03409 11.4235 4.65291 11.4235ZM3.55244 19.334C3.20938 19.334 2.93056 19.0552 2.93056 18.7121C2.93056 18.3722 3.20938 18.0931 3.55244 18.0931C3.89515 18.0931 4.1715 18.3719 4.1715 18.7121C4.1715 19.0552 3.89515 19.334 3.55244 19.334ZM22.5435 16.7L14.3694 20.4977C13.3681 20.962 12.2366 21.0643 11.1682 20.7871L5.87056 19.5624V12.6694H6.6435C8.34962 12.6694 10.0134 13.1971 11.4117 14.1906H15.2306C15.7847 14.1906 16.2329 14.6424 16.2329 15.193C16.2329 15.7506 15.7776 16.1953 15.2306 16.1953H12.0929C12.0227 16.1953 11.9554 16.2232 11.9057 16.2728C11.8561 16.3225 11.8282 16.3898 11.8282 16.46C11.8282 16.5302 11.8561 16.5975 11.9057 16.6472C11.9554 16.6968 12.0227 16.7247 12.0929 16.7247H15.2306C15.6788 16.7247 16.0811 16.5306 16.3635 16.2235L21.5517 14.3071C22.2859 14.0388 23.0906 14.4765 23.26 15.2353V15.2388C23.3976 15.8353 23.0976 16.4424 22.5435 16.7Z" fill="white"/>
<path d="M16.0217 8.25021L20.2529 4.02006C21.2892 5.19752 21.2485 6.99692 20.1241 8.12102C19.846 8.40056 19.5153 8.62218 19.1509 8.77305C18.7866 8.92393 18.396 9.00106 18.0017 8.99999C17.2721 9.00106 16.5675 8.73425 16.0217 8.25021Z" fill="white"/>
<path d="M18.0017 3C18.7308 3.0001 19.4348 3.26631 19.9814 3.74863L15.75 7.97878C15.2667 7.43094 15 6.73644 15 5.99933C14.9989 5.60509 15.0761 5.21456 15.227 4.85034C15.3779 4.48611 15.5996 4.15543 15.8792 3.87744C16.1577 3.59863 16.4886 3.37759 16.8529 3.22701C17.2171 3.07644 17.6075 2.99929 18.0017 3Z" fill="white"/>
</svg>
