<svg width="24" height="24" viewBox="0 0 24 24" fill="none" xmlns="http://www.w3.org/2000/svg">
<g clip-path="url(#clip0_1_74160)">
<path d="M19.7927 20.1655C20.5696 18.9068 21 17.4881 21 16.0001C21 12.5336 18.8126 9.52649 15.5449 8.43056C15.1053 7.72031 14.3836 7.2075 13.5321 7.05384L13.9999 6.11822C14.1235 5.87114 14.0234 5.57086 13.7763 5.44734L14.2236 4.55283C14.3423 4.61187 14.4795 4.62148 14.6052 4.57956C14.731 4.53765 14.835 4.44762 14.8945 4.32919L15.9472 2.22371C16.0707 1.97663 15.9707 1.67635 15.7236 1.55279L12.7236 0.0527928C12.476 -0.0702539 12.1767 0.0288866 12.0527 0.276433L11 2.38191C10.8764 2.62899 10.9765 2.92927 11.2236 3.05283L10.7763 3.94735C10.5298 3.82477 10.229 3.92391 10.1054 4.17099L6.05268 12.2765C5.92917 12.5235 6.02924 12.8238 6.27632 12.9474L9.27632 14.4474C9.33505 14.4767 9.39899 14.4943 9.4645 14.4989C9.53 14.5036 9.59578 14.4953 9.65807 14.4745C9.72037 14.4537 9.77797 14.4209 9.82757 14.3779C9.87718 14.3348 9.91783 14.2825 9.94719 14.2237L10.9641 12.1902C11.4999 12.6886 12.2121 13.0001 12.9999 13.0001C13.6564 13.0001 14.2591 12.7821 14.7536 12.4232C16.1232 13.093 16.9999 14.4618 16.9999 16.0001C16.9999 18.2056 15.2055 20 12.9999 20H8.99994V19.0001H10.4999C10.5656 19.0001 10.6307 18.9872 10.6913 18.9621C10.752 18.937 10.8072 18.9001 10.8536 18.8537C10.9 18.8073 10.9369 18.7521 10.962 18.6914C10.9871 18.6308 11 18.5657 11 18.5C11 18.4344 10.9871 18.3693 10.962 18.3086C10.9369 18.248 10.9 18.1928 10.8536 18.1464C10.8072 18.0999 10.752 18.0631 10.6913 18.038C10.6307 18.0129 10.5656 18 10.4999 18H3.50001C3.43434 18 3.3693 18.0129 3.30862 18.038C3.24793 18.0631 3.19279 18.0999 3.14635 18.1464C3.09992 18.1928 3.06309 18.248 3.03797 18.3086C3.01286 18.3693 2.99996 18.4344 3 18.5C2.99996 18.5657 3.01286 18.6308 3.03797 18.6914C3.06309 18.7521 3.09992 18.8073 3.14635 18.8537C3.19279 18.9001 3.24793 18.937 3.30862 18.9621C3.3693 18.9872 3.43434 19.0001 3.50001 19.0001H5.00001V20C3.897 20 3 20.897 3 22V23.5C2.99996 23.5657 3.01286 23.6308 3.03797 23.6914C3.06309 23.7521 3.09992 23.8073 3.14635 23.8537C3.19279 23.9001 3.24793 23.937 3.30862 23.9621C3.3693 23.9872 3.43434 24.0001 3.50001 24.0001H20.5C20.5657 24.0001 20.6307 23.9872 20.6914 23.9621C20.7521 23.937 20.8072 23.9001 20.8537 23.8537C20.9001 23.8073 20.9369 23.7521 20.962 23.6914C20.9872 23.6308 21.0001 23.5657 21 23.5V22C21 21.1788 20.502 20.4732 19.7927 20.1655ZM13 11.0001C12.4488 11.0001 12 10.5513 12 10.0001C12 9.44882 12.4488 9.00009 13 9.00009C13.5513 9.00009 14 9.44882 14 10.0001C14 10.5513 13.5513 11.0001 13 11.0001Z" fill="white"/>
</g>
<defs>
<clipPath id="clip0_1_74160">
<rect width="24" height="24" fill="white"/>
</clipPath>
</defs>
</svg>
