<svg width="44" height="50" viewBox="0 0 44 50" fill="none" xmlns="http://www.w3.org/2000/svg">
<path d="M20.4826 0.795988C14.8276 4.4397 10.8065 9.39244 9.6704 14.1158C9.31297 15.5868 9.17256 17.3411 9.27468 19.028L9.36404 20.445L9.45339 19.0955C9.50445 18.3533 9.60658 17.3816 9.68317 16.9363C10.13 14.2912 11.7128 11.3627 14.0744 8.83914C15.9892 6.77437 18.0189 5.16844 20.5592 3.72445L21.6825 3.07668L22.5378 3.61649C26.0993 5.8567 29.9672 10.0132 31.499 13.2251C32.6479 15.6407 32.7756 16.5044 32.7756 21.97C32.7756 24.6555 32.8266 26.4504 32.8905 26.3694C33.3245 25.8971 34.2946 21.6326 34.6393 18.7581C34.9584 16.0591 34.8818 15.3573 34.0649 13.1576C32.4564 8.77167 27.6439 3.49503 22.5506 0.499092L21.7208 -0.000230789L20.4826 0.795988Z" fill="white"/>
<path d="M21.1919 6.53954C21.0898 7.21431 20.1962 9.07664 19.3792 10.2777C18.1793 12.0591 15.9581 14.7581 12.9328 18.1454C9.38401 22.113 8.98828 22.8958 8.98828 25.8917C8.98828 28.3478 9.21806 30.3586 9.62655 31.4517C9.97121 32.3829 9.98397 32.4234 9.80526 33.2061C9.57548 34.2317 9.4223 37.5786 9.58825 37.9024C9.69037 38.1049 9.74143 37.9834 9.80526 37.3222C9.90738 36.4315 10.2776 35.1089 10.6605 34.2992L10.9158 33.7999L11.7456 34.4612C12.6392 35.1764 13.9923 35.8377 15.1156 36.0941L15.8305 36.256L16.0475 37.4301C16.2007 38.2128 16.4943 39.0495 16.9283 40.0077C17.4772 41.1683 17.758 41.6001 18.5622 42.4503C19.4813 43.4355 20.8345 44.3262 21.3834 44.3262C21.6387 44.3262 22.0344 43.7054 22.2642 42.9092C22.494 42.1669 22.4684 40.5745 22.2004 39.7513C21.9451 38.9281 21.9068 39.0091 23.4003 37.5111C28.0341 32.8687 30.434 29.333 31.2892 25.8512C31.6467 24.3802 31.8254 21.1414 31.6084 19.6974L31.4807 18.8877L31.468 19.6029C31.4424 20.6555 30.9956 22.8823 30.5616 24.0698C30.0765 25.3789 29.2213 26.9308 28.1362 28.4693C27.1278 29.8863 24.447 33.1386 24.0258 33.449C23.4897 33.8539 19.1622 38.3073 18.8048 38.8336L18.4474 39.3599L18.0516 38.7122C17.6304 38.0104 17.1581 36.7688 17.1581 36.3775C17.1581 36.1886 17.2857 36.0941 17.6304 36.0266C19.5707 35.6487 21.5876 34.1103 22.3918 32.3829C23.5662 29.9133 22.9407 26.1076 21.3706 26.1076C20.8472 26.1076 19.9281 26.58 19.2133 27.2007C18.0261 28.2129 16.7623 30.3316 16.3156 32.0185L16.0985 32.8552H15.5624C14.7071 32.8552 12.3073 31.9511 12.3073 31.6272C12.3073 31.3438 15.205 28.5638 17.4389 26.7149C18.6005 25.7567 18.9452 25.1899 18.9452 24.2588V23.584L19.4686 23.7325C19.8771 23.8404 20.043 23.8269 20.3111 23.6785C20.8345 23.3681 21.1408 22.8283 21.2047 22.113C21.294 21.1009 21.3578 20.9794 21.5876 21.4248C21.8557 21.9916 22.5961 22.302 23.4386 22.194C25.0343 22.0186 26.3874 20.4936 27.1916 18.0105C27.6128 16.7149 27.4341 12.4774 26.9107 11.3169C26.6427 10.7096 26.0682 10.2912 25.4172 10.2237C23.6811 10.0213 22.4046 13.1117 22.5578 17.1063L22.6216 18.8472L22.2769 18.7527C22.0982 18.7122 21.7536 18.4693 21.5366 18.2129L21.1153 17.7406V18.3883C21.1153 19.252 20.6813 20.1292 20.0813 20.4936C19.6218 20.7635 19.5962 20.7635 18.8941 20.5341C18.4984 20.3991 17.7963 20.0213 17.3495 19.6839C16.7879 19.2925 16.4943 19.1441 16.456 19.252C16.2773 19.8323 15.9964 21.5462 16.0475 21.7082C16.0858 21.8026 16.4943 22.113 16.9538 22.3829C17.4134 22.6528 17.7963 22.9227 17.7963 22.9767C17.7963 23.0307 17.5538 23.2466 17.2602 23.476C16.2134 24.2453 13.5072 26.7554 12.7285 27.6461C12.2945 28.1589 11.6945 28.9551 11.3882 29.4274C11.0818 29.8998 10.801 30.2911 10.7499 30.2911C10.5967 30.2911 9.65208 28.9011 9.43507 28.3613C9.26912 27.943 9.26912 27.754 9.38401 27.2817C9.67761 26.1211 10.4052 24.92 11.7966 23.2601C12.754 22.1265 12.5753 22.3425 15.5624 18.8877C20.0047 13.746 21.2557 11.6947 21.5621 9.06315C21.6514 8.18596 21.5238 5.99973 21.3706 5.99973C21.3196 5.99973 21.243 6.24265 21.1919 6.53954ZM26.3491 13.854C27.0512 14.2318 27.0512 14.4208 26.4129 15.8108C25.5959 17.5516 24.2556 18.8067 23.196 18.8202C22.6982 18.8202 22.6982 18.7932 22.979 17.3627C23.2471 15.9592 23.8981 14.5017 24.447 14.0699C25.1619 13.4896 25.5832 13.4491 26.3491 13.854ZM22.1365 29.6029C22.1365 29.8053 20.9111 31.0604 20.2217 31.5462C19.5069 32.059 17.7197 32.8147 17.5793 32.6798C17.49 32.5718 17.8091 32.0455 18.4729 31.1953C18.9835 30.5341 19.7622 29.9807 20.5792 29.6704C21.1153 29.4679 22.1365 29.4274 22.1365 29.6029ZM20.2856 39.9402C21.1536 40.1831 21.5238 40.48 21.4727 40.8714C21.4089 41.3707 20.6047 41.2223 19.775 40.561C18.7154 39.7108 18.8559 39.5489 20.2856 39.9402Z" fill="white"/>
<path d="M9.59485 7.0447C7.64176 8.40771 5.21635 10.9853 3.88876 13.0906C-2.20028 22.7936 -1.03864 35.5466 6.6716 43.6572C9.59485 46.7342 13.1436 48.7449 17.2795 49.6896C18.4923 49.9595 19.0156 50 21.3517 50C23.6239 49.9865 24.2239 49.946 25.3089 49.6896C29.2406 48.7854 32.5468 46.9771 35.4956 44.1296C37.7678 41.9299 40.1549 37.9892 41.4698 34.2106C41.6995 33.5358 42.1719 32.5237 42.5038 31.9434C43.6654 29.9731 44.0356 28.4076 43.9845 25.7626C43.9462 24.1297 43.9462 24.1027 43.7803 24.6965C43.6782 25.0203 43.3207 25.884 42.9761 26.6263C42.6314 27.355 42.2612 28.2997 42.1591 28.718L41.9676 29.4873L42.0187 28.4751C42.057 27.7464 42.1974 27.0581 42.5421 26.046C42.7974 25.2633 43.1293 24.2376 43.2569 23.7518C43.6909 22.1863 43.5122 19.3658 42.874 17.7869L42.6442 17.2066L42.5676 18.1513C42.5165 18.6776 42.3889 19.4333 42.274 19.8382C42.1719 20.243 42.0059 21.1607 41.9166 21.8625L41.7506 23.1445L41.6613 21.9839C41.5847 21.1742 41.623 20.2565 41.7634 18.9205C41.9293 17.436 41.9421 16.8017 41.84 16.1135C41.6102 14.5615 40.9336 13.1041 40.0528 12.2134L39.6571 11.8085L39.8103 12.2134C39.8869 12.4293 40.0018 13.6439 40.0656 14.9124C40.1166 16.1675 40.206 17.382 40.2443 17.6115C40.3081 17.9084 40.2188 17.8139 39.8996 17.2201C39.6571 16.7478 38.9678 15.8841 38.2146 15.1013L36.9509 13.7788L37.0275 14.548C37.1168 15.5467 37.5253 16.6938 38.0742 17.4495C38.304 17.7734 38.9933 18.4212 39.5933 18.8935C40.4485 19.5548 40.7549 19.8922 41.0102 20.4185C41.4442 21.3631 41.4059 21.6735 40.9464 20.8908C40.7421 20.5399 40.3975 20.1216 40.1932 19.9596C39.8486 19.6897 38.0104 18.853 37.9338 18.934C37.8444 19.015 38.2529 20.7828 38.4444 21.1877C38.5721 21.4441 39.2997 22.2943 40.0528 23.077C41.2783 24.3321 41.457 24.575 41.6357 25.2228C41.7506 25.6276 41.84 26.3024 41.8272 26.7072V27.463L41.5974 26.6533C41.2528 25.3712 40.9719 24.8854 40.1294 24.0622L39.3507 23.2929L39.3124 24.3591C39.2614 25.7086 39.555 26.7612 40.4358 28.4076C41.6102 30.5939 41.6613 30.9178 41.1379 32.8746C40.5634 34.9663 39.4146 37.274 37.8061 39.5412C36.8615 40.8772 35.4318 42.5101 35.202 42.5101C35.1127 42.5101 35.0744 40.0135 35.0616 35.1148V27.7329L34.7425 28.8665C34.3595 30.216 33.7851 31.741 33.1979 32.8746L32.7766 33.7113V39.1228V44.5344L32.2915 44.8583C30.3001 46.1809 27.3003 47.274 24.6451 47.6518C23.0112 47.8678 19.7815 47.7328 18.2114 47.3819C10.4884 45.6275 4.52703 39.4737 2.52288 31.1877C1.92291 28.6775 1.7059 25.0743 2.01226 22.5777C2.44628 19.1634 3.51857 15.8841 5.15253 13.0636C6.64606 10.4725 8.71404 8.01635 10.8841 6.27547C11.0246 6.16751 11.1012 6.07304 11.0629 6.07304C11.0246 6.07304 10.3608 6.50489 9.59485 7.0447Z" fill="white"/>
<path d="M34.882 7.84056C36.2479 9.33853 36.9117 10.4586 37.3074 11.9431C37.6776 13.3196 38.2903 14.3857 39.2988 15.3439L39.6179 15.6543L39.5796 14.8041C39.5158 13.5625 39.2988 12.4289 39.0052 11.8082C38.6733 11.1064 35.5075 7.80007 34.4352 7.03085L33.6055 6.42356L34.882 7.84056Z" fill="white"/>
<path d="M35.2036 19.4606C34.91 22.2811 34.0292 25.5604 32.9697 27.8006C31.9484 29.9463 30.3272 32.227 27.2253 35.8977C25.1701 38.3269 24.6339 39.0556 24.2127 40.0138C23.8297 40.864 23.7787 41.3093 23.9191 42.7668L24.0084 43.6035L24.2382 43.0502C24.6595 42.0651 25.2211 41.3363 27.9784 38.2729C29.4847 36.5995 31.0932 34.6967 31.5527 34.0489C33.5058 31.2959 34.5781 28.219 35.1398 23.7385C35.3312 22.2136 35.5483 17.9491 35.4334 17.9491C35.3951 17.9491 35.2929 18.6374 35.2036 19.4606Z" fill="white"/>
<path d="M23.1521 22.7659C23.3308 24.6552 24.0074 26.2342 25.0797 27.2733C25.4626 27.6377 25.8583 27.9346 25.9477 27.9346C26.1009 27.9346 27.4157 26.4906 27.4157 26.3286C27.4157 26.2747 27.0966 26.0722 26.7008 25.8563C25.7562 25.33 24.0457 23.6161 23.5606 22.7119C23.3563 22.3206 23.1521 21.9967 23.1266 21.9967C23.101 21.9967 23.1138 22.3475 23.1521 22.7659Z" fill="white"/>
<path d="M26.4706 44.332C26.2026 44.6289 26.2153 44.7099 26.5728 45.0338C26.7387 45.1822 26.9047 45.3981 26.9302 45.4926C27.0834 45.9379 27.1217 45.4926 26.9813 44.9123C26.8025 44.1296 26.7387 44.0621 26.4706 44.332ZM26.777 44.6829C26.777 44.7639 26.7259 44.7774 26.6494 44.7369C26.5855 44.6964 26.5217 44.5884 26.5217 44.5209C26.5217 44.44 26.5855 44.4265 26.6494 44.467C26.7259 44.5075 26.777 44.6154 26.777 44.6829Z" fill="white"/>
<path d="M16.7822 44.3591C16.7567 44.4266 16.8333 44.764 16.9609 45.1419C17.2035 45.8301 17.2673 45.6817 17.1269 44.764C17.0503 44.3052 16.9099 44.1297 16.7822 44.3591Z" fill="white"/>
<path d="M17.8154 44.9383C17.7005 45.3027 17.6622 45.6131 17.7261 45.6131C17.7771 45.6131 17.892 45.4107 17.9431 45.1677L18.0707 44.7359L18.275 45.2487C18.5941 46.0179 18.76 45.721 18.4537 44.9383C18.3133 44.5605 18.1473 44.2636 18.109 44.2636C18.058 44.2636 17.9303 44.5605 17.8154 44.9383Z" fill="white"/>
<path d="M18.838 44.345C18.7997 44.3854 18.8763 44.6554 19.004 44.9388C19.1444 45.2222 19.2465 45.546 19.2465 45.6405C19.2465 45.8834 19.4508 45.6135 19.6039 45.1412C19.6678 44.9118 19.7699 44.6284 19.8209 44.4934C19.872 44.372 19.8592 44.264 19.7826 44.264C19.7061 44.264 19.6167 44.4394 19.5656 44.6688C19.5146 44.8848 19.438 45.0737 19.3742 45.0737C19.3103 45.0737 19.2337 44.8848 19.1827 44.6688C19.1061 44.2775 18.9912 44.1695 18.838 44.345Z" fill="white"/>
<path d="M20.2486 44.6292C20.172 44.8316 20.0955 45.1825 20.0572 45.4119C20.0061 45.8168 20.0572 45.7358 20.2869 45.0745C20.4018 44.7506 20.4146 44.7506 20.6316 45.277C20.7592 45.5873 20.8869 45.7493 20.938 45.6548C20.989 45.5738 20.938 45.3309 20.8358 45.1285C20.7337 44.9126 20.6444 44.6697 20.6444 44.5752C20.6444 44.2378 20.3763 44.2648 20.2486 44.6292Z" fill="white"/>
<path d="M24.1963 44.3592C24.1708 44.4267 24.2474 44.764 24.375 45.1419C24.541 45.6547 24.592 45.7357 24.6048 45.4658C24.6176 44.6696 24.3622 43.9948 24.1963 44.3592Z" fill="white"/>
<path d="M25.2069 44.3589C25.1558 44.3994 25.1813 44.5479 25.2451 44.6693C25.309 44.8043 25.3856 45.0877 25.3983 45.3171C25.4111 45.5465 25.4749 45.695 25.5387 45.6545C25.6026 45.614 25.6281 45.4116 25.6026 45.2091C25.5643 44.9257 25.6026 44.8043 25.7813 44.7638C25.9089 44.7233 26.0111 44.5884 26.0111 44.4534C26.0111 44.2645 25.9728 44.251 25.8579 44.3724C25.7685 44.4669 25.6409 44.4804 25.5005 44.3994C25.3728 44.332 25.2451 44.305 25.2069 44.3589Z" fill="white"/>
<path d="M27.6844 44.453C27.2887 44.9523 27.5951 45.7755 28.1057 45.5731C28.4759 45.4246 28.3099 44.264 27.9142 44.264C27.8632 44.264 27.761 44.345 27.6844 44.453ZM28.1823 45.0198C28.1823 45.2897 27.9397 45.3842 27.7355 45.2087C27.5951 45.0873 27.5823 44.9793 27.6844 44.7769C27.7866 44.5744 27.8504 44.5474 28.0036 44.6824C28.1057 44.7634 28.1823 44.9118 28.1823 45.0198Z" fill="white"/>
<path d="M22.8447 44.6959C22.7554 44.7904 22.6915 44.9928 22.6915 45.1682C22.6915 45.3302 22.5894 45.5326 22.4745 45.6001C22.2958 45.708 22.4235 45.735 22.9469 45.708C23.5596 45.681 23.6489 45.6406 23.6872 45.3976C23.7383 45.0198 23.0617 44.4665 22.8447 44.6959ZM23.2405 45.1277C23.483 45.3302 23.5468 45.5461 23.3043 45.3842C23.2149 45.3302 23.0873 45.2762 23.0234 45.2762C22.9596 45.2762 22.883 45.1952 22.8575 45.1008C22.7809 44.8848 22.9469 44.8983 23.2405 45.1277Z" fill="white"/>
<path d="M15.6051 45.1009C15.554 45.2763 15.3625 45.5462 15.1838 45.7082C14.903 45.9511 14.8774 46.0186 15.0689 46.0186C15.1838 46.0186 15.3753 45.9106 15.4902 45.7621C15.6051 45.6272 15.7965 45.5462 15.9242 45.5732C16.205 45.6542 16.3454 45.4248 16.2433 45.0739C16.1284 44.7095 15.7072 44.723 15.6051 45.1009ZM16.1157 45.2088C16.154 45.2763 16.1412 45.3438 16.0646 45.3438C16.0008 45.3438 15.8987 45.2763 15.8604 45.2088C15.8221 45.1279 15.8348 45.0739 15.9114 45.0739C15.9753 45.0739 16.0774 45.1279 16.1157 45.2088Z" fill="white"/>
</svg>
