<svg width="24" height="24" viewBox="0 0 24 24" fill="none" xmlns="http://www.w3.org/2000/svg">
<path d="M11.6005 8.99079V7.8066H12.7846C12.8791 7.8066 12.9533 7.73238 12.9533 7.63792V6.62579C12.9533 6.53133 12.8791 6.4571 12.7846 6.4571H11.6005V5.27292C11.6005 5.17845 11.5262 5.10423 11.4318 5.10423H10.4197C10.3252 5.10423 10.251 5.17845 10.251 5.27292V6.4571H9.06678C8.97231 6.4571 8.89809 6.53133 8.89809 6.62579V7.63792C8.89809 7.73238 8.97231 7.8066 9.06678 7.8066H10.251V8.99079C10.251 9.08526 10.3252 9.15948 10.4197 9.15948H11.4318C11.5229 9.15948 11.6005 9.08526 11.6005 8.99079ZM18.5268 3.33301V20.9238C18.5268 21.6626 17.9262 22.2631 17.1874 22.2631H5.33203C5.33381 22.4382 5.40462 22.6056 5.52907 22.7287C5.65352 22.8519 5.82155 22.921 5.99666 22.921H18.5167C18.8844 22.921 19.1813 22.6241 19.1813 22.2564V3.99764C19.1813 3.63327 18.8878 3.33638 18.5268 3.33301Z" fill="white"/>
<path d="M17.8526 20.92V2.66463C17.8526 2.29689 17.5557 2 17.188 2H4.66463C4.29689 2 4 2.29689 4 2.66463V20.92C4 21.2877 4.29689 21.5846 4.66463 21.5846H17.1846C17.5524 21.5846 17.8526 21.2877 17.8526 20.92ZM8.02151 19.2837C8.02151 19.4963 7.84945 19.6683 7.63691 19.6683H5.70374C5.4912 19.6683 5.31914 19.4963 5.31914 19.2837V17.3506C5.31914 17.138 5.4912 16.966 5.70374 16.966H7.63691C7.84945 16.966 8.02151 17.138 8.02151 17.3506V19.2837ZM8.02151 14.8945C8.02151 15.107 7.84945 15.2791 7.63691 15.2791H5.70374C5.4912 15.2791 5.31914 15.107 5.31914 14.8945V12.9647C5.31914 12.7521 5.4912 12.5801 5.70374 12.5801H7.63691C7.84945 12.5801 8.02151 12.7521 8.02151 12.9647V14.8945ZM7.21519 7.13148C7.21519 5.08024 8.87507 3.42035 10.9263 3.42035C12.9776 3.42035 14.6374 5.08024 14.6374 7.13148C14.6374 9.18272 12.9776 10.8426 10.9263 10.8426C8.87507 10.8426 7.21519 9.17934 7.21519 7.13148ZM14.9343 19.3715H9.77924C9.59368 19.3715 9.44186 19.2196 9.44186 19.0341C9.44186 18.8485 9.59368 18.6967 9.77924 18.6967H14.9343C15.1199 18.6967 15.2717 18.8485 15.2717 19.0341C15.2717 19.2196 15.1199 19.3715 14.9343 19.3715ZM16.5267 17.941H9.77924C9.59368 17.941 9.44186 17.7892 9.44186 17.6036C9.44186 17.418 9.59368 17.2662 9.77924 17.2662H16.5267C16.7123 17.2662 16.8641 17.418 16.8641 17.6036C16.8641 17.7892 16.7123 17.941 16.5267 17.941ZM9.44186 14.6448C9.44186 14.4593 9.59368 14.3074 9.77924 14.3074H14.9343C15.1199 14.3074 15.2717 14.4593 15.2717 14.6448C15.2717 14.8304 15.1199 14.9822 14.9343 14.9822H9.77924C9.59368 14.9822 9.44186 14.8304 9.44186 14.6448ZM16.5267 13.5517H9.77924C9.59368 13.5517 9.44186 13.3999 9.44186 13.2144C9.44186 13.0288 9.59368 12.877 9.77924 12.877H16.5267C16.7123 12.877 16.8641 13.0288 16.8641 13.2144C16.8641 13.3999 16.7123 13.5517 16.5267 13.5517Z" fill="white"/>
</svg>
